G04 EAGLE Gerber RS-274X export*
G75*
%MOMM*%
%FSLAX34Y34*%
%LPD*%
%INBottom Copper*%
%IPPOS*%
%AMOC8*
5,1,8,0,0,1.08239X$1,22.5*%
G01*
%ADD10C,1.400000*%
%ADD11C,1.960000*%
%ADD12R,1.288000X1.288000*%
%ADD13C,1.288000*%
%ADD14R,1.524000X1.524000*%
%ADD15P,1.649562X8X292.500000*%
%ADD16R,1.676400X1.676400*%
%ADD17C,1.676400*%
%ADD18C,4.016000*%
%ADD19C,4.445000*%
%ADD20C,0.914400*%
%ADD21C,0.381000*%


D10*
X254400Y165100D03*
X279400Y165100D03*
X304400Y165100D03*
D11*
X646700Y164700D03*
X646700Y114700D03*
X521700Y114700D03*
X521700Y164700D03*
D12*
X1089100Y687400D03*
D13*
X1064100Y687400D03*
X1044100Y687400D03*
X1019100Y687400D03*
D10*
X991000Y152400D03*
X1016000Y152400D03*
X1041000Y152400D03*
D11*
X811800Y164700D03*
X811800Y114700D03*
X686800Y114700D03*
X686800Y164700D03*
D14*
X409200Y842600D03*
D15*
X383800Y842600D03*
X409200Y817200D03*
X383800Y817200D03*
X409200Y791800D03*
X383800Y791800D03*
X409200Y766400D03*
X383800Y766400D03*
X409200Y741000D03*
X383800Y741000D03*
X409200Y715600D03*
X383800Y715600D03*
X409200Y690200D03*
X383800Y690200D03*
X409200Y664800D03*
X383800Y664800D03*
X409200Y639400D03*
X383800Y639400D03*
X409200Y614000D03*
X383800Y614000D03*
X409200Y588600D03*
X383800Y588600D03*
X409200Y563200D03*
X383800Y563200D03*
X409200Y537800D03*
X383800Y537800D03*
X409200Y512400D03*
X383800Y512400D03*
X409200Y487000D03*
X383800Y487000D03*
X409200Y461600D03*
X383800Y461600D03*
X409200Y436200D03*
X383800Y436200D03*
X409200Y410800D03*
X383800Y410800D03*
D14*
X155200Y842600D03*
D15*
X129800Y842600D03*
X155200Y817200D03*
X129800Y817200D03*
X155200Y791800D03*
X129800Y791800D03*
X155200Y766400D03*
X129800Y766400D03*
X155200Y741000D03*
X129800Y741000D03*
X155200Y715600D03*
X129800Y715600D03*
X155200Y690200D03*
X129800Y690200D03*
X155200Y664800D03*
X129800Y664800D03*
X155200Y639400D03*
X129800Y639400D03*
X155200Y614000D03*
X129800Y614000D03*
X155200Y588600D03*
X129800Y588600D03*
X155200Y563200D03*
X129800Y563200D03*
X155200Y537800D03*
X129800Y537800D03*
X155200Y512400D03*
X129800Y512400D03*
X155200Y487000D03*
X129800Y487000D03*
X155200Y461600D03*
X129800Y461600D03*
X155200Y436200D03*
X129800Y436200D03*
X155200Y410800D03*
X129800Y410800D03*
D16*
X304800Y368300D03*
D17*
X304800Y393700D03*
X304800Y419100D03*
X304800Y444500D03*
X304800Y469900D03*
X304800Y495300D03*
X304800Y520700D03*
X304800Y546100D03*
X304800Y571500D03*
X304800Y596900D03*
X304800Y622300D03*
X304800Y647700D03*
X304800Y673100D03*
X304800Y698500D03*
X304800Y723900D03*
X304800Y749300D03*
X304800Y774700D03*
X304800Y800100D03*
X304800Y825500D03*
X304800Y850900D03*
D18*
X304800Y323850D03*
X304800Y895350D03*
X1066800Y323850D03*
X1066800Y895350D03*
D19*
X1219200Y965200D03*
X50800Y965200D03*
X50800Y50800D03*
X1219200Y50800D03*
D20*
X570230Y288290D03*
X646430Y330200D03*
X826770Y292100D03*
X680720Y901700D03*
X704215Y223520D03*
X558800Y223520D03*
D21*
X339090Y645490D02*
X383800Y690200D01*
X339090Y427990D02*
X304800Y393700D01*
X339090Y427990D02*
X339090Y645490D01*
X984020Y792480D02*
X1089100Y687400D01*
X409880Y792480D02*
X409200Y791800D01*
X409880Y792480D02*
X984020Y792480D01*
X383800Y639400D02*
X350520Y606120D01*
X254400Y198498D02*
X254400Y165100D01*
X350520Y294618D02*
X350520Y606120D01*
X350520Y294618D02*
X254400Y198498D01*
X963930Y152400D02*
X991000Y152400D01*
X963930Y152400D02*
X944880Y133350D01*
X282340Y133350D01*
X254400Y161290D01*
X254400Y165100D01*
X409200Y715600D02*
X990900Y715600D01*
X1019100Y687400D01*
X304800Y323850D02*
X271780Y323850D01*
X50800Y102870D01*
X50800Y50800D01*
X1066800Y323850D02*
X1094740Y295910D01*
X1094740Y175260D01*
X1219200Y50800D01*
X1066800Y895350D02*
X1136650Y965200D01*
X1219200Y965200D01*
X304800Y895350D02*
X234950Y965200D01*
X50800Y965200D01*
M02*
