G04 EAGLE Gerber RS-274X export*
G75*
%MOMM*%
%FSLAX34Y34*%
%LPD*%
%IN*%
%IPPOS*%
%AMOC8*
5,1,8,0,0,1.08239X$1,22.5*%
G01*
%ADD10C,0.254000*%


D10*
X0Y0D02*
X1270000Y0D01*
X1270000Y1016000D01*
X0Y1016000D01*
X0Y0D01*
X241900Y234609D02*
X241823Y233630D01*
X241669Y232660D01*
X241440Y231704D01*
X241136Y230770D01*
X240761Y229863D01*
X240315Y228988D01*
X239801Y228150D01*
X239224Y227355D01*
X238586Y226608D01*
X237892Y225914D01*
X237145Y225276D01*
X236350Y224699D01*
X235512Y224185D01*
X234637Y223739D01*
X233730Y223364D01*
X232796Y223060D01*
X231841Y222831D01*
X230870Y222677D01*
X229891Y222600D01*
X228909Y222600D01*
X227930Y222677D01*
X226960Y222831D01*
X226004Y223060D01*
X225070Y223364D01*
X224163Y223739D01*
X223288Y224185D01*
X222450Y224699D01*
X221655Y225276D01*
X220908Y225914D01*
X220214Y226608D01*
X219576Y227355D01*
X218999Y228150D01*
X218485Y228988D01*
X218039Y229863D01*
X217664Y230770D01*
X217360Y231704D01*
X217131Y232660D01*
X216977Y233630D01*
X216900Y234609D01*
X216900Y235591D01*
X216977Y236570D01*
X217131Y237541D01*
X217360Y238496D01*
X217664Y239430D01*
X218039Y240337D01*
X218485Y241212D01*
X218999Y242050D01*
X219576Y242845D01*
X220214Y243592D01*
X220908Y244286D01*
X221655Y244924D01*
X222450Y245501D01*
X223288Y246015D01*
X224163Y246461D01*
X225070Y246836D01*
X226004Y247140D01*
X226960Y247369D01*
X227930Y247523D01*
X228909Y247600D01*
X229891Y247600D01*
X230870Y247523D01*
X231841Y247369D01*
X232796Y247140D01*
X233730Y246836D01*
X234637Y246461D01*
X235512Y246015D01*
X236350Y245501D01*
X237145Y244924D01*
X237892Y244286D01*
X238586Y243592D01*
X239224Y242845D01*
X239801Y242050D01*
X240315Y241212D01*
X240761Y240337D01*
X241136Y239430D01*
X241440Y238496D01*
X241669Y237541D01*
X241823Y236570D01*
X241900Y235591D01*
X241900Y234609D01*
X341900Y234609D02*
X341823Y233630D01*
X341669Y232660D01*
X341440Y231704D01*
X341136Y230770D01*
X340761Y229863D01*
X340315Y228988D01*
X339801Y228150D01*
X339224Y227355D01*
X338586Y226608D01*
X337892Y225914D01*
X337145Y225276D01*
X336350Y224699D01*
X335512Y224185D01*
X334637Y223739D01*
X333730Y223364D01*
X332796Y223060D01*
X331841Y222831D01*
X330870Y222677D01*
X329891Y222600D01*
X328909Y222600D01*
X327930Y222677D01*
X326960Y222831D01*
X326004Y223060D01*
X325070Y223364D01*
X324163Y223739D01*
X323288Y224185D01*
X322450Y224699D01*
X321655Y225276D01*
X320908Y225914D01*
X320214Y226608D01*
X319576Y227355D01*
X318999Y228150D01*
X318485Y228988D01*
X318039Y229863D01*
X317664Y230770D01*
X317360Y231704D01*
X317131Y232660D01*
X316977Y233630D01*
X316900Y234609D01*
X316900Y235591D01*
X316977Y236570D01*
X317131Y237541D01*
X317360Y238496D01*
X317664Y239430D01*
X318039Y240337D01*
X318485Y241212D01*
X318999Y242050D01*
X319576Y242845D01*
X320214Y243592D01*
X320908Y244286D01*
X321655Y244924D01*
X322450Y245501D01*
X323288Y246015D01*
X324163Y246461D01*
X325070Y246836D01*
X326004Y247140D01*
X326960Y247369D01*
X327930Y247523D01*
X328909Y247600D01*
X329891Y247600D01*
X330870Y247523D01*
X331841Y247369D01*
X332796Y247140D01*
X333730Y246836D01*
X334637Y246461D01*
X335512Y246015D01*
X336350Y245501D01*
X337145Y244924D01*
X337892Y244286D01*
X338586Y243592D01*
X339224Y242845D01*
X339801Y242050D01*
X340315Y241212D01*
X340761Y240337D01*
X341136Y239430D01*
X341440Y238496D01*
X341669Y237541D01*
X341823Y236570D01*
X341900Y235591D01*
X341900Y234609D01*
X1108300Y659848D02*
X1108371Y658947D01*
X1108512Y658055D01*
X1108723Y657176D01*
X1109002Y656317D01*
X1109348Y655482D01*
X1109759Y654677D01*
X1110231Y653906D01*
X1110762Y653175D01*
X1111349Y652488D01*
X1111988Y651849D01*
X1112675Y651262D01*
X1113406Y650731D01*
X1114177Y650259D01*
X1114982Y649848D01*
X1115817Y649502D01*
X1116676Y649223D01*
X1117555Y649012D01*
X1118447Y648871D01*
X1119348Y648800D01*
X1120252Y648800D01*
X1121153Y648871D01*
X1122045Y649012D01*
X1122924Y649223D01*
X1123783Y649502D01*
X1124618Y649848D01*
X1125423Y650259D01*
X1126194Y650731D01*
X1126925Y651262D01*
X1127612Y651849D01*
X1128251Y652488D01*
X1128838Y653175D01*
X1129369Y653906D01*
X1129841Y654677D01*
X1130252Y655482D01*
X1130598Y656317D01*
X1130877Y657176D01*
X1131088Y658055D01*
X1131229Y658947D01*
X1131300Y659848D01*
X1131300Y660752D01*
X1131229Y661653D01*
X1131088Y662545D01*
X1130877Y663424D01*
X1130598Y664283D01*
X1130252Y665118D01*
X1129841Y665923D01*
X1129369Y666694D01*
X1128838Y667425D01*
X1128251Y668112D01*
X1127612Y668751D01*
X1126925Y669338D01*
X1126194Y669869D01*
X1125423Y670341D01*
X1124618Y670752D01*
X1123783Y671098D01*
X1122924Y671377D01*
X1122045Y671588D01*
X1121153Y671729D01*
X1120252Y671800D01*
X1119348Y671800D01*
X1118447Y671729D01*
X1117555Y671588D01*
X1116676Y671377D01*
X1115817Y671098D01*
X1114982Y670752D01*
X1114177Y670341D01*
X1113406Y669869D01*
X1112675Y669338D01*
X1111988Y668751D01*
X1111349Y668112D01*
X1110762Y667425D01*
X1110231Y666694D01*
X1109759Y665923D01*
X1109348Y665118D01*
X1109002Y664283D01*
X1108723Y663424D01*
X1108512Y662545D01*
X1108371Y661653D01*
X1108300Y660752D01*
X1108300Y659848D01*
X976900Y659848D02*
X976971Y658947D01*
X977112Y658055D01*
X977323Y657176D01*
X977602Y656317D01*
X977948Y655482D01*
X978359Y654677D01*
X978831Y653906D01*
X979362Y653175D01*
X979949Y652488D01*
X980588Y651849D01*
X981275Y651262D01*
X982006Y650731D01*
X982777Y650259D01*
X983582Y649848D01*
X984417Y649502D01*
X985276Y649223D01*
X986155Y649012D01*
X987047Y648871D01*
X987948Y648800D01*
X988852Y648800D01*
X989753Y648871D01*
X990645Y649012D01*
X991524Y649223D01*
X992383Y649502D01*
X993218Y649848D01*
X994023Y650259D01*
X994794Y650731D01*
X995525Y651262D01*
X996212Y651849D01*
X996851Y652488D01*
X997438Y653175D01*
X997969Y653906D01*
X998441Y654677D01*
X998852Y655482D01*
X999198Y656317D01*
X999477Y657176D01*
X999688Y658055D01*
X999829Y658947D01*
X999900Y659848D01*
X999900Y660752D01*
X999829Y661653D01*
X999688Y662545D01*
X999477Y663424D01*
X999198Y664283D01*
X998852Y665118D01*
X998441Y665923D01*
X997969Y666694D01*
X997438Y667425D01*
X996851Y668112D01*
X996212Y668751D01*
X995525Y669338D01*
X994794Y669869D01*
X994023Y670341D01*
X993218Y670752D01*
X992383Y671098D01*
X991524Y671377D01*
X990645Y671588D01*
X989753Y671729D01*
X988852Y671800D01*
X987948Y671800D01*
X987047Y671729D01*
X986155Y671588D01*
X985276Y671377D01*
X984417Y671098D01*
X983582Y670752D01*
X982777Y670341D01*
X982006Y669869D01*
X981275Y669338D01*
X980588Y668751D01*
X979949Y668112D01*
X979362Y667425D01*
X978831Y666694D01*
X978359Y665923D01*
X977948Y665118D01*
X977602Y664283D01*
X977323Y663424D01*
X977112Y662545D01*
X976971Y661653D01*
X976900Y660752D01*
X976900Y659848D01*
X978500Y221909D02*
X978423Y220930D01*
X978269Y219960D01*
X978040Y219004D01*
X977736Y218070D01*
X977361Y217163D01*
X976915Y216288D01*
X976401Y215450D01*
X975824Y214655D01*
X975186Y213908D01*
X974492Y213214D01*
X973745Y212576D01*
X972950Y211999D01*
X972112Y211485D01*
X971237Y211039D01*
X970330Y210664D01*
X969396Y210360D01*
X968441Y210131D01*
X967470Y209977D01*
X966491Y209900D01*
X965509Y209900D01*
X964530Y209977D01*
X963560Y210131D01*
X962604Y210360D01*
X961670Y210664D01*
X960763Y211039D01*
X959888Y211485D01*
X959050Y211999D01*
X958255Y212576D01*
X957508Y213214D01*
X956814Y213908D01*
X956176Y214655D01*
X955599Y215450D01*
X955085Y216288D01*
X954639Y217163D01*
X954264Y218070D01*
X953960Y219004D01*
X953731Y219960D01*
X953577Y220930D01*
X953500Y221909D01*
X953500Y222891D01*
X953577Y223870D01*
X953731Y224841D01*
X953960Y225796D01*
X954264Y226730D01*
X954639Y227637D01*
X955085Y228512D01*
X955599Y229350D01*
X956176Y230145D01*
X956814Y230892D01*
X957508Y231586D01*
X958255Y232224D01*
X959050Y232801D01*
X959888Y233315D01*
X960763Y233761D01*
X961670Y234136D01*
X962604Y234440D01*
X963560Y234669D01*
X964530Y234823D01*
X965509Y234900D01*
X966491Y234900D01*
X967470Y234823D01*
X968441Y234669D01*
X969396Y234440D01*
X970330Y234136D01*
X971237Y233761D01*
X972112Y233315D01*
X972950Y232801D01*
X973745Y232224D01*
X974492Y231586D01*
X975186Y230892D01*
X975824Y230145D01*
X976401Y229350D01*
X976915Y228512D01*
X977361Y227637D01*
X977736Y226730D01*
X978040Y225796D01*
X978269Y224841D01*
X978423Y223870D01*
X978500Y222891D01*
X978500Y221909D01*
X1078500Y221909D02*
X1078423Y220930D01*
X1078269Y219960D01*
X1078040Y219004D01*
X1077736Y218070D01*
X1077361Y217163D01*
X1076915Y216288D01*
X1076401Y215450D01*
X1075824Y214655D01*
X1075186Y213908D01*
X1074492Y213214D01*
X1073745Y212576D01*
X1072950Y211999D01*
X1072112Y211485D01*
X1071237Y211039D01*
X1070330Y210664D01*
X1069396Y210360D01*
X1068441Y210131D01*
X1067470Y209977D01*
X1066491Y209900D01*
X1065509Y209900D01*
X1064530Y209977D01*
X1063560Y210131D01*
X1062604Y210360D01*
X1061670Y210664D01*
X1060763Y211039D01*
X1059888Y211485D01*
X1059050Y211999D01*
X1058255Y212576D01*
X1057508Y213214D01*
X1056814Y213908D01*
X1056176Y214655D01*
X1055599Y215450D01*
X1055085Y216288D01*
X1054639Y217163D01*
X1054264Y218070D01*
X1053960Y219004D01*
X1053731Y219960D01*
X1053577Y220930D01*
X1053500Y221909D01*
X1053500Y222891D01*
X1053577Y223870D01*
X1053731Y224841D01*
X1053960Y225796D01*
X1054264Y226730D01*
X1054639Y227637D01*
X1055085Y228512D01*
X1055599Y229350D01*
X1056176Y230145D01*
X1056814Y230892D01*
X1057508Y231586D01*
X1058255Y232224D01*
X1059050Y232801D01*
X1059888Y233315D01*
X1060763Y233761D01*
X1061670Y234136D01*
X1062604Y234440D01*
X1063560Y234669D01*
X1064530Y234823D01*
X1065509Y234900D01*
X1066491Y234900D01*
X1067470Y234823D01*
X1068441Y234669D01*
X1069396Y234440D01*
X1070330Y234136D01*
X1071237Y233761D01*
X1072112Y233315D01*
X1072950Y232801D01*
X1073745Y232224D01*
X1074492Y231586D01*
X1075186Y230892D01*
X1075824Y230145D01*
X1076401Y229350D01*
X1076915Y228512D01*
X1077361Y227637D01*
X1077736Y226730D01*
X1078040Y225796D01*
X1078269Y224841D01*
X1078423Y223870D01*
X1078500Y222891D01*
X1078500Y221909D01*
M02*
