G04 EAGLE Gerber RS-274X export*
G75*
%MOMM*%
%FSLAX34Y34*%
%LPD*%
%INSilkscreen Bottom*%
%IPPOS*%
%AMOC8*
5,1,8,0,0,1.08239X$1,22.5*%
G01*
%ADD10C,0.200000*%
%ADD11C,0.101600*%
%ADD12R,0.508000X0.508000*%
%ADD13C,0.254000*%
%ADD14C,0.203200*%
%ADD15C,0.152400*%
%ADD16C,0.006453*%
%ADD17C,0.177800*%


D10*
X1119600Y645300D02*
X1119600Y557300D01*
X988600Y557300D01*
X988600Y645300D01*
X1119600Y675300D02*
X1119600Y698300D01*
X988600Y698300D01*
X988600Y675300D01*
D11*
X1126732Y580736D02*
X1138437Y580736D01*
X1138437Y583988D01*
X1138438Y583988D02*
X1138436Y584100D01*
X1138430Y584212D01*
X1138421Y584324D01*
X1138407Y584436D01*
X1138390Y584547D01*
X1138368Y584657D01*
X1138344Y584766D01*
X1138315Y584875D01*
X1138282Y584982D01*
X1138246Y585089D01*
X1138206Y585193D01*
X1138163Y585297D01*
X1138116Y585399D01*
X1138066Y585499D01*
X1138012Y585598D01*
X1137954Y585694D01*
X1137894Y585789D01*
X1137830Y585881D01*
X1137763Y585971D01*
X1137693Y586059D01*
X1137620Y586144D01*
X1137544Y586227D01*
X1137466Y586307D01*
X1137384Y586385D01*
X1137300Y586459D01*
X1137214Y586531D01*
X1137125Y586599D01*
X1137033Y586664D01*
X1136940Y586727D01*
X1136844Y586785D01*
X1136747Y586841D01*
X1136647Y586893D01*
X1136546Y586942D01*
X1136443Y586987D01*
X1136339Y587029D01*
X1136234Y587067D01*
X1136127Y587101D01*
X1136019Y587132D01*
X1135910Y587158D01*
X1135800Y587182D01*
X1135689Y587201D01*
X1135578Y587216D01*
X1135466Y587228D01*
X1135354Y587236D01*
X1135242Y587240D01*
X1135130Y587240D01*
X1135018Y587236D01*
X1134906Y587228D01*
X1134794Y587216D01*
X1134683Y587201D01*
X1134572Y587182D01*
X1134462Y587158D01*
X1134353Y587132D01*
X1134245Y587101D01*
X1134138Y587067D01*
X1134033Y587029D01*
X1133929Y586987D01*
X1133826Y586942D01*
X1133725Y586893D01*
X1133625Y586841D01*
X1133528Y586785D01*
X1133432Y586727D01*
X1133339Y586664D01*
X1133247Y586599D01*
X1133158Y586531D01*
X1133072Y586459D01*
X1132988Y586385D01*
X1132906Y586307D01*
X1132828Y586227D01*
X1132752Y586144D01*
X1132679Y586059D01*
X1132609Y585971D01*
X1132542Y585881D01*
X1132478Y585789D01*
X1132418Y585694D01*
X1132360Y585598D01*
X1132306Y585499D01*
X1132256Y585399D01*
X1132209Y585297D01*
X1132166Y585193D01*
X1132126Y585089D01*
X1132090Y584982D01*
X1132057Y584875D01*
X1132028Y584766D01*
X1132004Y584657D01*
X1131982Y584547D01*
X1131965Y584436D01*
X1131951Y584324D01*
X1131942Y584212D01*
X1131936Y584100D01*
X1131934Y583988D01*
X1131934Y580736D01*
X1135836Y591634D02*
X1138437Y594886D01*
X1126732Y594886D01*
X1126732Y591634D02*
X1126732Y598138D01*
X558292Y325120D02*
X558292Y318008D01*
X558292Y325120D02*
X556316Y325120D01*
X556230Y325118D01*
X556144Y325112D01*
X556058Y325103D01*
X555973Y325090D01*
X555888Y325073D01*
X555805Y325053D01*
X555722Y325029D01*
X555640Y325001D01*
X555560Y324970D01*
X555481Y324935D01*
X555404Y324897D01*
X555328Y324855D01*
X555254Y324811D01*
X555183Y324763D01*
X555113Y324712D01*
X555046Y324658D01*
X554981Y324601D01*
X554919Y324541D01*
X554859Y324479D01*
X554802Y324414D01*
X554748Y324347D01*
X554697Y324277D01*
X554649Y324206D01*
X554605Y324132D01*
X554563Y324056D01*
X554525Y323979D01*
X554490Y323900D01*
X554459Y323820D01*
X554431Y323738D01*
X554407Y323655D01*
X554387Y323572D01*
X554370Y323487D01*
X554357Y323402D01*
X554348Y323316D01*
X554342Y323230D01*
X554340Y323144D01*
X554341Y323144D02*
X554341Y319984D01*
X554340Y319984D02*
X554342Y319898D01*
X554348Y319812D01*
X554357Y319726D01*
X554370Y319641D01*
X554387Y319556D01*
X554407Y319473D01*
X554431Y319390D01*
X554459Y319308D01*
X554490Y319228D01*
X554525Y319149D01*
X554563Y319072D01*
X554605Y318996D01*
X554649Y318922D01*
X554697Y318851D01*
X554748Y318781D01*
X554802Y318714D01*
X554859Y318649D01*
X554919Y318587D01*
X554981Y318527D01*
X555046Y318470D01*
X555113Y318416D01*
X555183Y318365D01*
X555254Y318317D01*
X555328Y318273D01*
X555404Y318231D01*
X555481Y318193D01*
X555560Y318158D01*
X555640Y318127D01*
X555722Y318099D01*
X555805Y318075D01*
X555888Y318055D01*
X555973Y318038D01*
X556058Y318025D01*
X556144Y318016D01*
X556230Y318010D01*
X556316Y318008D01*
X558292Y318008D01*
X550733Y323540D02*
X548757Y325120D01*
X548757Y318008D01*
X546782Y318008D02*
X550733Y318008D01*
D12*
X409200Y842600D03*
X383800Y842600D03*
X383800Y817200D03*
X409200Y817200D03*
X383800Y791800D03*
X409200Y791800D03*
X383800Y766400D03*
X383800Y741000D03*
X383800Y715600D03*
X409200Y766400D03*
X409200Y741000D03*
X409200Y715600D03*
X383800Y690200D03*
X409200Y690200D03*
X383800Y664800D03*
X409200Y664800D03*
X383800Y639400D03*
X409200Y639400D03*
X383800Y614000D03*
X409200Y614000D03*
X383800Y588600D03*
X409200Y588600D03*
X383800Y563200D03*
X409200Y563200D03*
X383800Y537800D03*
X409200Y537800D03*
X383800Y512400D03*
X409200Y512400D03*
X383800Y487000D03*
X409200Y487000D03*
X383800Y461600D03*
X409200Y461600D03*
X383800Y436200D03*
X409200Y436200D03*
X383800Y410800D03*
X409200Y410800D03*
X155200Y842600D03*
X129800Y842600D03*
X129800Y817200D03*
X155200Y817200D03*
X129800Y791800D03*
X155200Y791800D03*
X129800Y766400D03*
X129800Y741000D03*
X129800Y715600D03*
X155200Y766400D03*
X155200Y741000D03*
X155200Y715600D03*
X129800Y690200D03*
X155200Y690200D03*
X129800Y664800D03*
X155200Y664800D03*
X129800Y639400D03*
X155200Y639400D03*
X129800Y614000D03*
X155200Y614000D03*
X129800Y588600D03*
X155200Y588600D03*
X129800Y563200D03*
X155200Y563200D03*
X129800Y537800D03*
X155200Y537800D03*
X129800Y512400D03*
X155200Y512400D03*
X129800Y487000D03*
X155200Y487000D03*
X129800Y461600D03*
X155200Y461600D03*
X129800Y436200D03*
X155200Y436200D03*
X129800Y410800D03*
X155200Y410800D03*
D13*
X94500Y451700D02*
X94500Y801700D01*
X94529Y804116D01*
X94617Y806531D01*
X94763Y808943D01*
X94967Y811351D01*
X95229Y813754D01*
X95549Y816149D01*
X95927Y818536D01*
X96363Y820913D01*
X96856Y823278D01*
X97406Y825632D01*
X98012Y827971D01*
X98675Y830295D01*
X99394Y832602D01*
X100169Y834891D01*
X100998Y837160D01*
X101883Y839409D01*
X102821Y841636D01*
X103813Y843840D01*
X104857Y846019D01*
X105954Y848172D01*
X107103Y850298D01*
X108303Y852396D01*
X109553Y854464D01*
X110853Y856501D01*
X112202Y858506D01*
X113598Y860479D01*
X115042Y862416D01*
X116533Y864319D01*
X118068Y866184D01*
X119649Y868012D01*
X121273Y869802D01*
X122940Y871551D01*
X124649Y873260D01*
X126398Y874927D01*
X128188Y876551D01*
X130016Y878132D01*
X131881Y879667D01*
X133784Y881158D01*
X135721Y882602D01*
X137694Y883998D01*
X139699Y885347D01*
X141736Y886647D01*
X143804Y887897D01*
X145902Y889097D01*
X148028Y890246D01*
X150181Y891343D01*
X152360Y892387D01*
X154564Y893379D01*
X156791Y894317D01*
X159040Y895202D01*
X161309Y896031D01*
X163598Y896806D01*
X165905Y897525D01*
X168229Y898188D01*
X170568Y898794D01*
X172922Y899344D01*
X175287Y899837D01*
X177664Y900273D01*
X180051Y900651D01*
X182446Y900971D01*
X184849Y901233D01*
X187257Y901437D01*
X189669Y901583D01*
X192084Y901671D01*
X194500Y901700D01*
X344500Y901700D01*
X346916Y901671D01*
X349331Y901583D01*
X351743Y901437D01*
X354151Y901233D01*
X356554Y900971D01*
X358949Y900651D01*
X361336Y900273D01*
X363713Y899837D01*
X366078Y899344D01*
X368432Y898794D01*
X370771Y898188D01*
X373095Y897525D01*
X375402Y896806D01*
X377691Y896031D01*
X379960Y895202D01*
X382209Y894317D01*
X384436Y893379D01*
X386640Y892387D01*
X388819Y891343D01*
X390972Y890246D01*
X393098Y889097D01*
X395196Y887897D01*
X397264Y886647D01*
X399301Y885347D01*
X401306Y883998D01*
X403279Y882602D01*
X405216Y881158D01*
X407119Y879667D01*
X408984Y878132D01*
X410812Y876551D01*
X412602Y874927D01*
X414351Y873260D01*
X416060Y871551D01*
X417727Y869802D01*
X419351Y868012D01*
X420932Y866184D01*
X422467Y864319D01*
X423958Y862416D01*
X425402Y860479D01*
X426798Y858506D01*
X428147Y856501D01*
X429447Y854464D01*
X430697Y852396D01*
X431897Y850298D01*
X433046Y848172D01*
X434143Y846019D01*
X435187Y843840D01*
X436179Y841636D01*
X437117Y839409D01*
X438002Y837160D01*
X438831Y834891D01*
X439606Y832602D01*
X440325Y830295D01*
X440988Y827971D01*
X441594Y825632D01*
X442144Y823278D01*
X442637Y820913D01*
X443073Y818536D01*
X443451Y816149D01*
X443771Y813754D01*
X444033Y811351D01*
X444237Y808943D01*
X444383Y806531D01*
X444471Y804116D01*
X444500Y801700D01*
X444500Y451700D01*
X444471Y449284D01*
X444383Y446869D01*
X444237Y444457D01*
X444033Y442049D01*
X443771Y439646D01*
X443451Y437251D01*
X443073Y434864D01*
X442637Y432487D01*
X442144Y430122D01*
X441594Y427768D01*
X440988Y425429D01*
X440325Y423105D01*
X439606Y420798D01*
X438831Y418509D01*
X438002Y416240D01*
X437117Y413991D01*
X436179Y411764D01*
X435187Y409560D01*
X434143Y407381D01*
X433046Y405228D01*
X431897Y403102D01*
X430697Y401004D01*
X429447Y398936D01*
X428147Y396899D01*
X426798Y394894D01*
X425402Y392921D01*
X423958Y390984D01*
X422467Y389081D01*
X420932Y387216D01*
X419351Y385388D01*
X417727Y383598D01*
X416060Y381849D01*
X414351Y380140D01*
X412602Y378473D01*
X410812Y376849D01*
X408984Y375268D01*
X407119Y373733D01*
X405216Y372242D01*
X403279Y370798D01*
X401306Y369402D01*
X399301Y368053D01*
X397264Y366753D01*
X395196Y365503D01*
X393098Y364303D01*
X390972Y363154D01*
X388819Y362057D01*
X386640Y361013D01*
X384436Y360021D01*
X382209Y359083D01*
X379960Y358198D01*
X377691Y357369D01*
X375402Y356594D01*
X373095Y355875D01*
X370771Y355212D01*
X368432Y354606D01*
X366078Y354056D01*
X363713Y353563D01*
X361336Y353127D01*
X358949Y352749D01*
X356554Y352429D01*
X354151Y352167D01*
X351743Y351963D01*
X349331Y351817D01*
X346916Y351729D01*
X344500Y351700D01*
X194500Y351700D01*
X192084Y351729D01*
X189669Y351817D01*
X187257Y351963D01*
X184849Y352167D01*
X182446Y352429D01*
X180051Y352749D01*
X177664Y353127D01*
X175287Y353563D01*
X172922Y354056D01*
X170568Y354606D01*
X168229Y355212D01*
X165905Y355875D01*
X163598Y356594D01*
X161309Y357369D01*
X159040Y358198D01*
X156791Y359083D01*
X154564Y360021D01*
X152360Y361013D01*
X150181Y362057D01*
X148028Y363154D01*
X145902Y364303D01*
X143804Y365503D01*
X141736Y366753D01*
X139699Y368053D01*
X137694Y369402D01*
X135721Y370798D01*
X133784Y372242D01*
X131881Y373733D01*
X130016Y375268D01*
X128188Y376849D01*
X126398Y378473D01*
X124649Y380140D01*
X122940Y381849D01*
X121273Y383598D01*
X119649Y385388D01*
X118068Y387216D01*
X116533Y389081D01*
X115042Y390984D01*
X113598Y392921D01*
X112202Y394894D01*
X110853Y396899D01*
X109553Y398936D01*
X108303Y401004D01*
X107103Y403102D01*
X105954Y405228D01*
X104857Y407381D01*
X103813Y409560D01*
X102821Y411764D01*
X101883Y413991D01*
X100998Y416240D01*
X100169Y418509D01*
X99394Y420798D01*
X98675Y423105D01*
X98012Y425429D01*
X97406Y427768D01*
X96856Y430122D01*
X96363Y432487D01*
X95927Y434864D01*
X95549Y437251D01*
X95229Y439646D01*
X94967Y442049D01*
X94763Y444457D01*
X94617Y446869D01*
X94529Y449284D01*
X94500Y451700D01*
D14*
X253736Y546768D02*
X269484Y546768D01*
X269484Y551142D01*
X269482Y551273D01*
X269476Y551404D01*
X269466Y551534D01*
X269453Y551664D01*
X269435Y551794D01*
X269414Y551923D01*
X269388Y552051D01*
X269359Y552179D01*
X269326Y552306D01*
X269290Y552431D01*
X269249Y552556D01*
X269205Y552679D01*
X269157Y552801D01*
X269106Y552921D01*
X269051Y553040D01*
X268992Y553157D01*
X268930Y553272D01*
X268865Y553385D01*
X268796Y553497D01*
X268724Y553606D01*
X268649Y553713D01*
X268570Y553818D01*
X268489Y553920D01*
X268404Y554020D01*
X268316Y554117D01*
X268226Y554212D01*
X268133Y554304D01*
X268037Y554393D01*
X267938Y554479D01*
X267837Y554562D01*
X267734Y554642D01*
X267628Y554719D01*
X267520Y554792D01*
X267409Y554863D01*
X267297Y554930D01*
X267183Y554994D01*
X267067Y555054D01*
X266949Y555111D01*
X266829Y555164D01*
X266708Y555214D01*
X266585Y555260D01*
X266462Y555302D01*
X266337Y555340D01*
X266210Y555375D01*
X266083Y555406D01*
X265955Y555434D01*
X265827Y555457D01*
X265697Y555476D01*
X265567Y555492D01*
X265437Y555504D01*
X265306Y555512D01*
X265175Y555516D01*
X265045Y555516D01*
X264914Y555512D01*
X264783Y555504D01*
X264653Y555492D01*
X264523Y555476D01*
X264393Y555457D01*
X264265Y555434D01*
X264137Y555406D01*
X264010Y555375D01*
X263883Y555340D01*
X263758Y555302D01*
X263635Y555260D01*
X263512Y555214D01*
X263391Y555164D01*
X263271Y555111D01*
X263153Y555054D01*
X263037Y554994D01*
X262923Y554930D01*
X262811Y554863D01*
X262700Y554792D01*
X262592Y554719D01*
X262486Y554642D01*
X262383Y554562D01*
X262282Y554479D01*
X262183Y554393D01*
X262087Y554304D01*
X261994Y554212D01*
X261904Y554117D01*
X261816Y554020D01*
X261731Y553920D01*
X261650Y553818D01*
X261571Y553713D01*
X261496Y553606D01*
X261424Y553497D01*
X261355Y553385D01*
X261290Y553272D01*
X261228Y553157D01*
X261169Y553040D01*
X261114Y552921D01*
X261063Y552801D01*
X261015Y552679D01*
X260971Y552556D01*
X260930Y552431D01*
X260894Y552306D01*
X260861Y552179D01*
X260832Y552051D01*
X260806Y551923D01*
X260785Y551794D01*
X260767Y551664D01*
X260754Y551534D01*
X260744Y551404D01*
X260738Y551273D01*
X260736Y551142D01*
X260735Y551142D02*
X260735Y546768D01*
X260735Y561457D02*
X257236Y561457D01*
X260735Y561457D02*
X260853Y561459D01*
X260971Y561465D01*
X261089Y561475D01*
X261206Y561489D01*
X261323Y561507D01*
X261440Y561529D01*
X261555Y561554D01*
X261669Y561584D01*
X261783Y561618D01*
X261895Y561655D01*
X262006Y561696D01*
X262115Y561741D01*
X262223Y561789D01*
X262329Y561841D01*
X262434Y561897D01*
X262536Y561956D01*
X262636Y562018D01*
X262734Y562084D01*
X262830Y562153D01*
X262924Y562226D01*
X263015Y562301D01*
X263103Y562380D01*
X263189Y562461D01*
X263272Y562546D01*
X263352Y562633D01*
X263429Y562722D01*
X263503Y562815D01*
X263573Y562909D01*
X263641Y563006D01*
X263705Y563106D01*
X263766Y563207D01*
X263823Y563310D01*
X263877Y563416D01*
X263928Y563523D01*
X263974Y563631D01*
X264017Y563741D01*
X264056Y563853D01*
X264092Y563966D01*
X264123Y564080D01*
X264151Y564195D01*
X264175Y564310D01*
X264195Y564427D01*
X264211Y564544D01*
X264223Y564662D01*
X264231Y564780D01*
X264235Y564898D01*
X264235Y565016D01*
X264231Y565134D01*
X264223Y565252D01*
X264211Y565370D01*
X264195Y565487D01*
X264175Y565604D01*
X264151Y565719D01*
X264123Y565834D01*
X264092Y565948D01*
X264056Y566061D01*
X264017Y566173D01*
X263974Y566283D01*
X263928Y566391D01*
X263877Y566498D01*
X263823Y566604D01*
X263766Y566707D01*
X263705Y566808D01*
X263641Y566908D01*
X263573Y567005D01*
X263503Y567099D01*
X263429Y567192D01*
X263352Y567281D01*
X263272Y567368D01*
X263189Y567453D01*
X263103Y567534D01*
X263015Y567613D01*
X262924Y567688D01*
X262830Y567761D01*
X262734Y567830D01*
X262636Y567896D01*
X262536Y567958D01*
X262434Y568017D01*
X262329Y568073D01*
X262223Y568125D01*
X262115Y568173D01*
X262006Y568218D01*
X261895Y568259D01*
X261783Y568296D01*
X261669Y568330D01*
X261555Y568360D01*
X261440Y568385D01*
X261323Y568407D01*
X261206Y568425D01*
X261089Y568439D01*
X260971Y568449D01*
X260853Y568455D01*
X260735Y568457D01*
X260735Y568456D02*
X257236Y568456D01*
X257236Y568457D02*
X257118Y568455D01*
X257000Y568449D01*
X256882Y568439D01*
X256765Y568425D01*
X256648Y568407D01*
X256531Y568385D01*
X256416Y568360D01*
X256302Y568330D01*
X256188Y568296D01*
X256076Y568259D01*
X255965Y568218D01*
X255856Y568173D01*
X255748Y568125D01*
X255642Y568073D01*
X255537Y568017D01*
X255435Y567958D01*
X255335Y567896D01*
X255237Y567830D01*
X255141Y567761D01*
X255047Y567688D01*
X254956Y567613D01*
X254868Y567534D01*
X254782Y567453D01*
X254699Y567368D01*
X254619Y567281D01*
X254542Y567192D01*
X254468Y567099D01*
X254398Y567005D01*
X254330Y566908D01*
X254266Y566808D01*
X254205Y566707D01*
X254148Y566604D01*
X254094Y566498D01*
X254043Y566391D01*
X253997Y566283D01*
X253954Y566173D01*
X253915Y566061D01*
X253879Y565948D01*
X253848Y565834D01*
X253820Y565719D01*
X253796Y565604D01*
X253776Y565487D01*
X253760Y565370D01*
X253748Y565252D01*
X253740Y565134D01*
X253736Y565016D01*
X253736Y564898D01*
X253740Y564780D01*
X253748Y564662D01*
X253760Y564544D01*
X253776Y564427D01*
X253796Y564310D01*
X253820Y564195D01*
X253848Y564080D01*
X253879Y563966D01*
X253915Y563853D01*
X253954Y563741D01*
X253997Y563631D01*
X254043Y563523D01*
X254094Y563416D01*
X254148Y563310D01*
X254205Y563207D01*
X254266Y563106D01*
X254330Y563006D01*
X254398Y562909D01*
X254468Y562815D01*
X254542Y562722D01*
X254619Y562633D01*
X254699Y562546D01*
X254782Y562461D01*
X254868Y562380D01*
X254956Y562301D01*
X255047Y562226D01*
X255141Y562153D01*
X255237Y562084D01*
X255335Y562018D01*
X255435Y561956D01*
X255537Y561897D01*
X255642Y561841D01*
X255748Y561789D01*
X255856Y561741D01*
X255965Y561696D01*
X256076Y561655D01*
X256188Y561618D01*
X256302Y561584D01*
X256416Y561554D01*
X256531Y561529D01*
X256648Y561507D01*
X256765Y561489D01*
X256882Y561475D01*
X257000Y561465D01*
X257118Y561459D01*
X257236Y561457D01*
X253736Y577650D02*
X253736Y581149D01*
X253736Y577650D02*
X253738Y577549D01*
X253744Y577449D01*
X253753Y577349D01*
X253767Y577249D01*
X253784Y577150D01*
X253805Y577052D01*
X253830Y576954D01*
X253858Y576858D01*
X253891Y576763D01*
X253926Y576669D01*
X253966Y576576D01*
X254009Y576485D01*
X254055Y576396D01*
X254105Y576309D01*
X254158Y576223D01*
X254214Y576140D01*
X254273Y576059D01*
X254336Y575980D01*
X254401Y575904D01*
X254470Y575830D01*
X254541Y575759D01*
X254615Y575690D01*
X254691Y575625D01*
X254770Y575562D01*
X254851Y575503D01*
X254934Y575447D01*
X255020Y575394D01*
X255107Y575344D01*
X255196Y575298D01*
X255287Y575255D01*
X255380Y575215D01*
X255474Y575180D01*
X255569Y575147D01*
X255665Y575119D01*
X255763Y575094D01*
X255861Y575073D01*
X255960Y575056D01*
X256060Y575042D01*
X256160Y575033D01*
X256260Y575027D01*
X256361Y575025D01*
X261610Y575025D01*
X261711Y575027D01*
X261811Y575033D01*
X261911Y575042D01*
X262011Y575056D01*
X262110Y575073D01*
X262208Y575094D01*
X262306Y575119D01*
X262402Y575147D01*
X262497Y575180D01*
X262591Y575215D01*
X262684Y575255D01*
X262775Y575298D01*
X262864Y575344D01*
X262951Y575394D01*
X263037Y575447D01*
X263120Y575503D01*
X263201Y575562D01*
X263280Y575625D01*
X263356Y575690D01*
X263430Y575759D01*
X263501Y575830D01*
X263570Y575904D01*
X263635Y575980D01*
X263698Y576059D01*
X263757Y576140D01*
X263813Y576223D01*
X263866Y576309D01*
X263916Y576396D01*
X263962Y576485D01*
X264005Y576576D01*
X264045Y576669D01*
X264081Y576763D01*
X264113Y576858D01*
X264141Y576954D01*
X264166Y577052D01*
X264187Y577150D01*
X264204Y577249D01*
X264218Y577349D01*
X264227Y577449D01*
X264233Y577549D01*
X264235Y577650D01*
X264235Y581149D01*
X269484Y587712D02*
X253736Y587712D01*
X258985Y587712D02*
X264235Y594711D01*
X261173Y590774D02*
X253736Y594711D01*
X253736Y603160D02*
X253736Y607534D01*
X253736Y603160D02*
X253738Y603059D01*
X253744Y602959D01*
X253753Y602859D01*
X253767Y602759D01*
X253784Y602660D01*
X253805Y602562D01*
X253830Y602464D01*
X253858Y602368D01*
X253891Y602273D01*
X253926Y602179D01*
X253966Y602086D01*
X254009Y601995D01*
X254055Y601906D01*
X254105Y601819D01*
X254158Y601733D01*
X254214Y601650D01*
X254273Y601569D01*
X254336Y601490D01*
X254401Y601414D01*
X254470Y601340D01*
X254541Y601269D01*
X254615Y601200D01*
X254691Y601135D01*
X254770Y601072D01*
X254851Y601013D01*
X254934Y600957D01*
X255020Y600904D01*
X255107Y600854D01*
X255196Y600808D01*
X255287Y600765D01*
X255380Y600725D01*
X255474Y600690D01*
X255569Y600657D01*
X255665Y600629D01*
X255763Y600604D01*
X255861Y600583D01*
X255960Y600566D01*
X256060Y600552D01*
X256160Y600543D01*
X256260Y600537D01*
X256361Y600535D01*
X260735Y600535D01*
X260853Y600537D01*
X260971Y600543D01*
X261089Y600553D01*
X261206Y600567D01*
X261323Y600585D01*
X261440Y600607D01*
X261555Y600632D01*
X261669Y600662D01*
X261783Y600696D01*
X261895Y600733D01*
X262006Y600774D01*
X262115Y600819D01*
X262223Y600867D01*
X262329Y600919D01*
X262434Y600975D01*
X262536Y601034D01*
X262636Y601096D01*
X262734Y601162D01*
X262830Y601231D01*
X262924Y601304D01*
X263015Y601379D01*
X263103Y601458D01*
X263189Y601539D01*
X263272Y601624D01*
X263352Y601711D01*
X263429Y601800D01*
X263503Y601893D01*
X263573Y601987D01*
X263641Y602084D01*
X263705Y602184D01*
X263766Y602285D01*
X263823Y602388D01*
X263877Y602494D01*
X263928Y602601D01*
X263974Y602709D01*
X264017Y602819D01*
X264056Y602931D01*
X264092Y603044D01*
X264123Y603158D01*
X264151Y603273D01*
X264175Y603388D01*
X264195Y603505D01*
X264211Y603622D01*
X264223Y603740D01*
X264231Y603858D01*
X264235Y603976D01*
X264235Y604094D01*
X264231Y604212D01*
X264223Y604330D01*
X264211Y604448D01*
X264195Y604565D01*
X264175Y604682D01*
X264151Y604797D01*
X264123Y604912D01*
X264092Y605026D01*
X264056Y605139D01*
X264017Y605251D01*
X263974Y605361D01*
X263928Y605469D01*
X263877Y605576D01*
X263823Y605682D01*
X263766Y605785D01*
X263705Y605886D01*
X263641Y605986D01*
X263573Y606083D01*
X263503Y606177D01*
X263429Y606270D01*
X263352Y606359D01*
X263272Y606446D01*
X263189Y606531D01*
X263103Y606612D01*
X263015Y606691D01*
X262924Y606766D01*
X262830Y606839D01*
X262734Y606908D01*
X262636Y606974D01*
X262536Y607036D01*
X262434Y607095D01*
X262329Y607151D01*
X262223Y607203D01*
X262115Y607251D01*
X262006Y607296D01*
X261895Y607337D01*
X261783Y607374D01*
X261669Y607408D01*
X261555Y607438D01*
X261440Y607463D01*
X261323Y607485D01*
X261206Y607503D01*
X261089Y607517D01*
X260971Y607527D01*
X260853Y607533D01*
X260735Y607535D01*
X260735Y607534D02*
X258985Y607534D01*
X258985Y600535D01*
X264235Y612733D02*
X264235Y617982D01*
X269484Y614483D02*
X256361Y614483D01*
X256260Y614485D01*
X256160Y614491D01*
X256060Y614500D01*
X255960Y614514D01*
X255861Y614531D01*
X255763Y614552D01*
X255665Y614577D01*
X255569Y614605D01*
X255474Y614638D01*
X255380Y614673D01*
X255287Y614713D01*
X255196Y614756D01*
X255107Y614802D01*
X255020Y614852D01*
X254934Y614905D01*
X254851Y614961D01*
X254770Y615020D01*
X254691Y615083D01*
X254615Y615148D01*
X254541Y615217D01*
X254470Y615288D01*
X254401Y615362D01*
X254336Y615438D01*
X254273Y615517D01*
X254214Y615598D01*
X254158Y615681D01*
X254105Y615767D01*
X254055Y615854D01*
X254009Y615943D01*
X253966Y616034D01*
X253926Y616127D01*
X253891Y616221D01*
X253858Y616316D01*
X253830Y616412D01*
X253805Y616510D01*
X253784Y616608D01*
X253767Y616707D01*
X253753Y616807D01*
X253744Y616907D01*
X253738Y617007D01*
X253736Y617108D01*
X253736Y617982D01*
X262485Y624924D02*
X262485Y629298D01*
X262484Y629298D02*
X262482Y629429D01*
X262476Y629560D01*
X262466Y629690D01*
X262453Y629820D01*
X262435Y629950D01*
X262414Y630079D01*
X262388Y630207D01*
X262359Y630335D01*
X262326Y630462D01*
X262290Y630587D01*
X262249Y630712D01*
X262205Y630835D01*
X262157Y630957D01*
X262106Y631077D01*
X262051Y631196D01*
X261992Y631313D01*
X261930Y631428D01*
X261865Y631541D01*
X261796Y631653D01*
X261724Y631762D01*
X261649Y631869D01*
X261570Y631974D01*
X261489Y632076D01*
X261404Y632176D01*
X261316Y632273D01*
X261226Y632368D01*
X261133Y632460D01*
X261037Y632549D01*
X260938Y632635D01*
X260837Y632718D01*
X260734Y632798D01*
X260628Y632875D01*
X260520Y632948D01*
X260409Y633019D01*
X260297Y633086D01*
X260183Y633150D01*
X260067Y633210D01*
X259949Y633267D01*
X259829Y633320D01*
X259708Y633370D01*
X259585Y633416D01*
X259462Y633458D01*
X259337Y633496D01*
X259210Y633531D01*
X259083Y633562D01*
X258955Y633590D01*
X258827Y633613D01*
X258697Y633632D01*
X258567Y633648D01*
X258437Y633660D01*
X258306Y633668D01*
X258175Y633672D01*
X258045Y633672D01*
X257914Y633668D01*
X257783Y633660D01*
X257653Y633648D01*
X257523Y633632D01*
X257393Y633613D01*
X257265Y633590D01*
X257137Y633562D01*
X257010Y633531D01*
X256883Y633496D01*
X256758Y633458D01*
X256635Y633416D01*
X256512Y633370D01*
X256391Y633320D01*
X256271Y633267D01*
X256153Y633210D01*
X256037Y633150D01*
X255923Y633086D01*
X255811Y633019D01*
X255700Y632948D01*
X255592Y632875D01*
X255486Y632798D01*
X255383Y632718D01*
X255282Y632635D01*
X255183Y632549D01*
X255087Y632460D01*
X254994Y632368D01*
X254904Y632273D01*
X254816Y632176D01*
X254731Y632076D01*
X254650Y631974D01*
X254571Y631869D01*
X254496Y631762D01*
X254424Y631653D01*
X254355Y631541D01*
X254290Y631428D01*
X254228Y631313D01*
X254169Y631196D01*
X254114Y631077D01*
X254063Y630957D01*
X254015Y630835D01*
X253971Y630712D01*
X253930Y630587D01*
X253894Y630462D01*
X253861Y630335D01*
X253832Y630207D01*
X253806Y630079D01*
X253785Y629950D01*
X253767Y629820D01*
X253754Y629690D01*
X253744Y629560D01*
X253738Y629429D01*
X253736Y629298D01*
X253736Y624924D01*
X269484Y624924D01*
X269484Y629298D01*
X269482Y629416D01*
X269476Y629534D01*
X269466Y629652D01*
X269452Y629769D01*
X269434Y629886D01*
X269412Y630003D01*
X269387Y630118D01*
X269357Y630232D01*
X269323Y630346D01*
X269286Y630458D01*
X269245Y630569D01*
X269200Y630678D01*
X269152Y630786D01*
X269100Y630892D01*
X269044Y630997D01*
X268985Y631099D01*
X268923Y631199D01*
X268857Y631297D01*
X268788Y631393D01*
X268715Y631487D01*
X268640Y631578D01*
X268561Y631666D01*
X268480Y631752D01*
X268395Y631835D01*
X268308Y631915D01*
X268219Y631992D01*
X268126Y632066D01*
X268032Y632136D01*
X267935Y632204D01*
X267835Y632268D01*
X267734Y632329D01*
X267631Y632386D01*
X267525Y632440D01*
X267418Y632491D01*
X267310Y632537D01*
X267200Y632580D01*
X267088Y632619D01*
X266975Y632655D01*
X266861Y632686D01*
X266746Y632714D01*
X266631Y632738D01*
X266514Y632758D01*
X266397Y632774D01*
X266279Y632786D01*
X266161Y632794D01*
X266043Y632798D01*
X265925Y632798D01*
X265807Y632794D01*
X265689Y632786D01*
X265571Y632774D01*
X265454Y632758D01*
X265337Y632738D01*
X265222Y632714D01*
X265107Y632686D01*
X264993Y632655D01*
X264880Y632619D01*
X264768Y632580D01*
X264658Y632537D01*
X264550Y632491D01*
X264443Y632440D01*
X264337Y632386D01*
X264234Y632329D01*
X264133Y632268D01*
X264033Y632204D01*
X263936Y632136D01*
X263842Y632066D01*
X263749Y631992D01*
X263660Y631915D01*
X263573Y631835D01*
X263488Y631752D01*
X263407Y631666D01*
X263328Y631578D01*
X263253Y631487D01*
X263180Y631393D01*
X263111Y631297D01*
X263045Y631199D01*
X262983Y631099D01*
X262924Y630997D01*
X262868Y630892D01*
X262816Y630786D01*
X262768Y630678D01*
X262723Y630569D01*
X262682Y630458D01*
X262645Y630346D01*
X262611Y630232D01*
X262581Y630118D01*
X262556Y630003D01*
X262534Y629886D01*
X262516Y629769D01*
X262502Y629652D01*
X262492Y629534D01*
X262486Y629416D01*
X262484Y629298D01*
X253736Y642238D02*
X253736Y646612D01*
X253736Y642238D02*
X253738Y642137D01*
X253744Y642037D01*
X253753Y641937D01*
X253767Y641837D01*
X253784Y641738D01*
X253805Y641640D01*
X253830Y641542D01*
X253858Y641446D01*
X253891Y641351D01*
X253926Y641257D01*
X253966Y641164D01*
X254009Y641073D01*
X254055Y640984D01*
X254105Y640897D01*
X254158Y640811D01*
X254214Y640728D01*
X254273Y640647D01*
X254336Y640568D01*
X254401Y640492D01*
X254470Y640418D01*
X254541Y640347D01*
X254615Y640278D01*
X254691Y640213D01*
X254770Y640150D01*
X254851Y640091D01*
X254934Y640035D01*
X255020Y639982D01*
X255107Y639932D01*
X255196Y639886D01*
X255287Y639843D01*
X255380Y639803D01*
X255474Y639768D01*
X255569Y639735D01*
X255665Y639707D01*
X255763Y639682D01*
X255861Y639661D01*
X255960Y639644D01*
X256060Y639630D01*
X256160Y639621D01*
X256260Y639615D01*
X256361Y639613D01*
X260735Y639613D01*
X260853Y639615D01*
X260971Y639621D01*
X261089Y639631D01*
X261206Y639645D01*
X261323Y639663D01*
X261440Y639685D01*
X261555Y639710D01*
X261669Y639740D01*
X261783Y639774D01*
X261895Y639811D01*
X262006Y639852D01*
X262115Y639897D01*
X262223Y639945D01*
X262329Y639997D01*
X262434Y640053D01*
X262536Y640112D01*
X262636Y640174D01*
X262734Y640240D01*
X262830Y640309D01*
X262924Y640382D01*
X263015Y640457D01*
X263103Y640536D01*
X263189Y640617D01*
X263272Y640702D01*
X263352Y640789D01*
X263429Y640878D01*
X263503Y640971D01*
X263573Y641065D01*
X263641Y641162D01*
X263705Y641262D01*
X263766Y641363D01*
X263823Y641466D01*
X263877Y641572D01*
X263928Y641679D01*
X263974Y641787D01*
X264017Y641897D01*
X264056Y642009D01*
X264092Y642122D01*
X264123Y642236D01*
X264151Y642351D01*
X264175Y642466D01*
X264195Y642583D01*
X264211Y642700D01*
X264223Y642818D01*
X264231Y642936D01*
X264235Y643054D01*
X264235Y643172D01*
X264231Y643290D01*
X264223Y643408D01*
X264211Y643526D01*
X264195Y643643D01*
X264175Y643760D01*
X264151Y643875D01*
X264123Y643990D01*
X264092Y644104D01*
X264056Y644217D01*
X264017Y644329D01*
X263974Y644439D01*
X263928Y644547D01*
X263877Y644654D01*
X263823Y644760D01*
X263766Y644863D01*
X263705Y644964D01*
X263641Y645064D01*
X263573Y645161D01*
X263503Y645255D01*
X263429Y645348D01*
X263352Y645437D01*
X263272Y645524D01*
X263189Y645609D01*
X263103Y645690D01*
X263015Y645769D01*
X262924Y645844D01*
X262830Y645917D01*
X262734Y645986D01*
X262636Y646052D01*
X262536Y646114D01*
X262434Y646173D01*
X262329Y646229D01*
X262223Y646281D01*
X262115Y646329D01*
X262006Y646374D01*
X261895Y646415D01*
X261783Y646452D01*
X261669Y646486D01*
X261555Y646516D01*
X261440Y646541D01*
X261323Y646563D01*
X261206Y646581D01*
X261089Y646595D01*
X260971Y646605D01*
X260853Y646611D01*
X260735Y646613D01*
X260735Y646612D02*
X258985Y646612D01*
X258985Y639613D01*
X259860Y656134D02*
X259860Y660071D01*
X259860Y656134D02*
X259858Y656025D01*
X259852Y655916D01*
X259842Y655807D01*
X259829Y655698D01*
X259811Y655590D01*
X259790Y655483D01*
X259765Y655377D01*
X259736Y655271D01*
X259703Y655167D01*
X259667Y655064D01*
X259627Y654962D01*
X259583Y654862D01*
X259536Y654763D01*
X259485Y654667D01*
X259431Y654572D01*
X259374Y654479D01*
X259313Y654388D01*
X259249Y654299D01*
X259182Y654213D01*
X259112Y654129D01*
X259039Y654047D01*
X258963Y653969D01*
X258885Y653893D01*
X258803Y653820D01*
X258719Y653750D01*
X258633Y653683D01*
X258544Y653619D01*
X258453Y653558D01*
X258360Y653501D01*
X258265Y653447D01*
X258169Y653396D01*
X258070Y653349D01*
X257970Y653305D01*
X257868Y653265D01*
X257765Y653229D01*
X257661Y653196D01*
X257555Y653167D01*
X257449Y653142D01*
X257342Y653121D01*
X257234Y653103D01*
X257125Y653090D01*
X257016Y653080D01*
X256907Y653074D01*
X256798Y653072D01*
X256689Y653074D01*
X256580Y653080D01*
X256471Y653090D01*
X256362Y653103D01*
X256254Y653121D01*
X256147Y653142D01*
X256041Y653167D01*
X255935Y653196D01*
X255831Y653229D01*
X255728Y653265D01*
X255626Y653305D01*
X255526Y653349D01*
X255427Y653396D01*
X255331Y653447D01*
X255236Y653501D01*
X255143Y653558D01*
X255052Y653619D01*
X254963Y653683D01*
X254877Y653750D01*
X254793Y653820D01*
X254711Y653893D01*
X254633Y653969D01*
X254557Y654047D01*
X254484Y654129D01*
X254414Y654213D01*
X254347Y654299D01*
X254283Y654388D01*
X254222Y654479D01*
X254165Y654572D01*
X254111Y654667D01*
X254060Y654763D01*
X254013Y654862D01*
X253969Y654962D01*
X253929Y655064D01*
X253893Y655167D01*
X253860Y655271D01*
X253831Y655377D01*
X253806Y655483D01*
X253785Y655590D01*
X253767Y655698D01*
X253754Y655807D01*
X253744Y655916D01*
X253738Y656025D01*
X253736Y656134D01*
X253736Y660071D01*
X261610Y660071D01*
X261610Y660072D02*
X261711Y660070D01*
X261811Y660064D01*
X261911Y660055D01*
X262011Y660041D01*
X262110Y660024D01*
X262208Y660003D01*
X262306Y659978D01*
X262402Y659950D01*
X262497Y659917D01*
X262591Y659882D01*
X262684Y659842D01*
X262775Y659799D01*
X262864Y659753D01*
X262951Y659703D01*
X263037Y659650D01*
X263120Y659594D01*
X263201Y659535D01*
X263280Y659472D01*
X263356Y659407D01*
X263430Y659338D01*
X263501Y659267D01*
X263570Y659193D01*
X263635Y659117D01*
X263698Y659038D01*
X263757Y658957D01*
X263813Y658874D01*
X263866Y658788D01*
X263916Y658701D01*
X263962Y658612D01*
X264005Y658521D01*
X264045Y658428D01*
X264080Y658334D01*
X264113Y658239D01*
X264141Y658143D01*
X264166Y658045D01*
X264187Y657947D01*
X264204Y657848D01*
X264218Y657748D01*
X264227Y657648D01*
X264233Y657548D01*
X264235Y657447D01*
X264235Y653947D01*
X253736Y669765D02*
X253736Y674139D01*
X253736Y669765D02*
X253738Y669664D01*
X253744Y669564D01*
X253753Y669464D01*
X253767Y669364D01*
X253784Y669265D01*
X253805Y669167D01*
X253830Y669069D01*
X253858Y668973D01*
X253891Y668878D01*
X253926Y668784D01*
X253966Y668691D01*
X254009Y668600D01*
X254055Y668511D01*
X254105Y668424D01*
X254158Y668338D01*
X254214Y668255D01*
X254273Y668174D01*
X254336Y668095D01*
X254401Y668019D01*
X254470Y667945D01*
X254541Y667874D01*
X254615Y667805D01*
X254691Y667740D01*
X254770Y667677D01*
X254851Y667618D01*
X254934Y667562D01*
X255020Y667509D01*
X255107Y667459D01*
X255196Y667413D01*
X255287Y667370D01*
X255380Y667330D01*
X255474Y667295D01*
X255569Y667262D01*
X255665Y667234D01*
X255763Y667209D01*
X255861Y667188D01*
X255960Y667171D01*
X256060Y667157D01*
X256160Y667148D01*
X256260Y667142D01*
X256361Y667140D01*
X261610Y667140D01*
X261711Y667142D01*
X261811Y667148D01*
X261911Y667157D01*
X262011Y667171D01*
X262110Y667188D01*
X262208Y667209D01*
X262306Y667234D01*
X262402Y667262D01*
X262497Y667295D01*
X262591Y667330D01*
X262684Y667370D01*
X262775Y667413D01*
X262864Y667459D01*
X262951Y667509D01*
X263037Y667562D01*
X263120Y667618D01*
X263201Y667677D01*
X263280Y667740D01*
X263356Y667805D01*
X263430Y667874D01*
X263501Y667945D01*
X263570Y668019D01*
X263635Y668095D01*
X263698Y668174D01*
X263757Y668255D01*
X263813Y668338D01*
X263866Y668424D01*
X263916Y668511D01*
X263962Y668600D01*
X264005Y668691D01*
X264045Y668784D01*
X264081Y668878D01*
X264113Y668973D01*
X264141Y669069D01*
X264166Y669167D01*
X264187Y669265D01*
X264204Y669364D01*
X264218Y669464D01*
X264227Y669564D01*
X264233Y669664D01*
X264235Y669765D01*
X264235Y674139D01*
X251111Y674139D01*
X251111Y674140D02*
X251010Y674138D01*
X250910Y674132D01*
X250810Y674123D01*
X250710Y674109D01*
X250611Y674092D01*
X250513Y674071D01*
X250415Y674046D01*
X250319Y674018D01*
X250224Y673985D01*
X250130Y673950D01*
X250037Y673910D01*
X249946Y673867D01*
X249857Y673821D01*
X249770Y673771D01*
X249684Y673718D01*
X249601Y673662D01*
X249520Y673603D01*
X249441Y673540D01*
X249365Y673475D01*
X249291Y673406D01*
X249220Y673335D01*
X249151Y673261D01*
X249086Y673185D01*
X249023Y673106D01*
X248964Y673025D01*
X248908Y672942D01*
X248855Y672856D01*
X248805Y672769D01*
X248759Y672680D01*
X248716Y672589D01*
X248676Y672496D01*
X248641Y672402D01*
X248608Y672307D01*
X248580Y672211D01*
X248555Y672113D01*
X248534Y672015D01*
X248517Y671916D01*
X248503Y671816D01*
X248494Y671716D01*
X248488Y671616D01*
X248486Y671515D01*
X248487Y671515D02*
X248487Y668015D01*
X256361Y681476D02*
X269484Y681476D01*
X256361Y681475D02*
X256260Y681477D01*
X256160Y681483D01*
X256060Y681492D01*
X255960Y681506D01*
X255861Y681523D01*
X255763Y681544D01*
X255665Y681569D01*
X255569Y681597D01*
X255474Y681630D01*
X255380Y681665D01*
X255287Y681705D01*
X255196Y681748D01*
X255107Y681794D01*
X255020Y681844D01*
X254934Y681897D01*
X254851Y681953D01*
X254770Y682012D01*
X254691Y682075D01*
X254615Y682140D01*
X254541Y682209D01*
X254470Y682280D01*
X254401Y682354D01*
X254336Y682430D01*
X254273Y682509D01*
X254214Y682590D01*
X254158Y682673D01*
X254105Y682759D01*
X254055Y682846D01*
X254009Y682935D01*
X253966Y683026D01*
X253926Y683119D01*
X253891Y683213D01*
X253858Y683308D01*
X253830Y683404D01*
X253805Y683502D01*
X253784Y683600D01*
X253767Y683699D01*
X253753Y683799D01*
X253744Y683899D01*
X253738Y683999D01*
X253736Y684100D01*
X253736Y692258D02*
X253736Y696632D01*
X253736Y692258D02*
X253738Y692157D01*
X253744Y692057D01*
X253753Y691957D01*
X253767Y691857D01*
X253784Y691758D01*
X253805Y691660D01*
X253830Y691562D01*
X253858Y691466D01*
X253891Y691371D01*
X253926Y691277D01*
X253966Y691184D01*
X254009Y691093D01*
X254055Y691004D01*
X254105Y690917D01*
X254158Y690831D01*
X254214Y690748D01*
X254273Y690667D01*
X254336Y690588D01*
X254401Y690512D01*
X254470Y690438D01*
X254541Y690367D01*
X254615Y690298D01*
X254691Y690233D01*
X254770Y690170D01*
X254851Y690111D01*
X254934Y690055D01*
X255020Y690002D01*
X255107Y689952D01*
X255196Y689906D01*
X255287Y689863D01*
X255380Y689823D01*
X255474Y689788D01*
X255569Y689755D01*
X255665Y689727D01*
X255763Y689702D01*
X255861Y689681D01*
X255960Y689664D01*
X256060Y689650D01*
X256160Y689641D01*
X256260Y689635D01*
X256361Y689633D01*
X260735Y689633D01*
X260853Y689635D01*
X260971Y689641D01*
X261089Y689651D01*
X261206Y689665D01*
X261323Y689683D01*
X261440Y689705D01*
X261555Y689730D01*
X261669Y689760D01*
X261783Y689794D01*
X261895Y689831D01*
X262006Y689872D01*
X262115Y689917D01*
X262223Y689965D01*
X262329Y690017D01*
X262434Y690073D01*
X262536Y690132D01*
X262636Y690194D01*
X262734Y690260D01*
X262830Y690329D01*
X262924Y690402D01*
X263015Y690477D01*
X263103Y690556D01*
X263189Y690637D01*
X263272Y690722D01*
X263352Y690809D01*
X263429Y690898D01*
X263503Y690991D01*
X263573Y691085D01*
X263641Y691182D01*
X263705Y691282D01*
X263766Y691383D01*
X263823Y691486D01*
X263877Y691592D01*
X263928Y691699D01*
X263974Y691807D01*
X264017Y691917D01*
X264056Y692029D01*
X264092Y692142D01*
X264123Y692256D01*
X264151Y692371D01*
X264175Y692486D01*
X264195Y692603D01*
X264211Y692720D01*
X264223Y692838D01*
X264231Y692956D01*
X264235Y693074D01*
X264235Y693192D01*
X264231Y693310D01*
X264223Y693428D01*
X264211Y693546D01*
X264195Y693663D01*
X264175Y693780D01*
X264151Y693895D01*
X264123Y694010D01*
X264092Y694124D01*
X264056Y694237D01*
X264017Y694349D01*
X263974Y694459D01*
X263928Y694567D01*
X263877Y694674D01*
X263823Y694780D01*
X263766Y694883D01*
X263705Y694984D01*
X263641Y695084D01*
X263573Y695181D01*
X263503Y695275D01*
X263429Y695368D01*
X263352Y695457D01*
X263272Y695544D01*
X263189Y695629D01*
X263103Y695710D01*
X263015Y695789D01*
X262924Y695864D01*
X262830Y695937D01*
X262734Y696006D01*
X262636Y696072D01*
X262536Y696134D01*
X262434Y696193D01*
X262329Y696249D01*
X262223Y696301D01*
X262115Y696349D01*
X262006Y696394D01*
X261895Y696435D01*
X261783Y696472D01*
X261669Y696506D01*
X261555Y696536D01*
X261440Y696561D01*
X261323Y696583D01*
X261206Y696601D01*
X261089Y696615D01*
X260971Y696625D01*
X260853Y696631D01*
X260735Y696633D01*
X260735Y696632D02*
X258985Y696632D01*
X258985Y689633D01*
X171484Y857897D02*
X155736Y857897D01*
X171484Y857897D02*
X171484Y862272D01*
X171482Y862403D01*
X171476Y862534D01*
X171466Y862664D01*
X171453Y862794D01*
X171435Y862924D01*
X171414Y863053D01*
X171388Y863181D01*
X171359Y863309D01*
X171326Y863436D01*
X171290Y863561D01*
X171249Y863686D01*
X171205Y863809D01*
X171157Y863931D01*
X171106Y864051D01*
X171051Y864170D01*
X170992Y864287D01*
X170930Y864402D01*
X170865Y864515D01*
X170796Y864627D01*
X170724Y864736D01*
X170649Y864843D01*
X170570Y864948D01*
X170489Y865050D01*
X170404Y865150D01*
X170316Y865247D01*
X170226Y865342D01*
X170133Y865434D01*
X170037Y865523D01*
X169938Y865609D01*
X169837Y865692D01*
X169734Y865772D01*
X169628Y865849D01*
X169520Y865922D01*
X169409Y865993D01*
X169297Y866060D01*
X169183Y866124D01*
X169067Y866184D01*
X168949Y866241D01*
X168829Y866294D01*
X168708Y866344D01*
X168585Y866390D01*
X168462Y866432D01*
X168337Y866470D01*
X168210Y866505D01*
X168083Y866536D01*
X167955Y866564D01*
X167827Y866587D01*
X167697Y866606D01*
X167567Y866622D01*
X167437Y866634D01*
X167306Y866642D01*
X167175Y866646D01*
X167045Y866646D01*
X166914Y866642D01*
X166783Y866634D01*
X166653Y866622D01*
X166523Y866606D01*
X166393Y866587D01*
X166265Y866564D01*
X166137Y866536D01*
X166010Y866505D01*
X165883Y866470D01*
X165758Y866432D01*
X165635Y866390D01*
X165512Y866344D01*
X165391Y866294D01*
X165271Y866241D01*
X165153Y866184D01*
X165037Y866124D01*
X164923Y866060D01*
X164811Y865993D01*
X164700Y865922D01*
X164592Y865849D01*
X164486Y865772D01*
X164383Y865692D01*
X164282Y865609D01*
X164183Y865523D01*
X164087Y865434D01*
X163994Y865342D01*
X163904Y865247D01*
X163816Y865150D01*
X163731Y865050D01*
X163650Y864948D01*
X163571Y864843D01*
X163496Y864736D01*
X163424Y864627D01*
X163355Y864515D01*
X163290Y864402D01*
X163228Y864287D01*
X163169Y864170D01*
X163114Y864051D01*
X163063Y863931D01*
X163015Y863809D01*
X162971Y863686D01*
X162930Y863561D01*
X162894Y863436D01*
X162861Y863309D01*
X162832Y863181D01*
X162806Y863053D01*
X162785Y862924D01*
X162767Y862794D01*
X162754Y862664D01*
X162744Y862534D01*
X162738Y862403D01*
X162736Y862272D01*
X162735Y862272D02*
X162735Y857897D01*
X171484Y877566D02*
X171482Y877690D01*
X171476Y877813D01*
X171467Y877937D01*
X171453Y878059D01*
X171436Y878182D01*
X171414Y878304D01*
X171389Y878425D01*
X171360Y878545D01*
X171328Y878664D01*
X171291Y878783D01*
X171251Y878900D01*
X171208Y879015D01*
X171160Y879130D01*
X171109Y879242D01*
X171055Y879353D01*
X170997Y879463D01*
X170936Y879570D01*
X170871Y879676D01*
X170803Y879779D01*
X170732Y879880D01*
X170658Y879979D01*
X170581Y880076D01*
X170500Y880170D01*
X170417Y880261D01*
X170331Y880350D01*
X170242Y880436D01*
X170151Y880519D01*
X170057Y880600D01*
X169960Y880677D01*
X169861Y880751D01*
X169760Y880822D01*
X169657Y880890D01*
X169551Y880955D01*
X169444Y881016D01*
X169334Y881074D01*
X169223Y881128D01*
X169111Y881179D01*
X168996Y881227D01*
X168881Y881270D01*
X168764Y881310D01*
X168645Y881347D01*
X168526Y881379D01*
X168406Y881408D01*
X168285Y881433D01*
X168163Y881455D01*
X168040Y881472D01*
X167918Y881486D01*
X167794Y881495D01*
X167671Y881501D01*
X167547Y881503D01*
X171484Y877566D02*
X171482Y877425D01*
X171476Y877283D01*
X171466Y877142D01*
X171452Y877002D01*
X171435Y876862D01*
X171413Y876722D01*
X171388Y876583D01*
X171358Y876445D01*
X171325Y876307D01*
X171288Y876171D01*
X171247Y876035D01*
X171202Y875901D01*
X171154Y875769D01*
X171102Y875637D01*
X171046Y875507D01*
X170987Y875379D01*
X170924Y875252D01*
X170857Y875128D01*
X170788Y875005D01*
X170714Y874884D01*
X170638Y874765D01*
X170558Y874648D01*
X170475Y874534D01*
X170388Y874422D01*
X170299Y874313D01*
X170207Y874206D01*
X170111Y874101D01*
X170013Y874000D01*
X169912Y873901D01*
X169808Y873805D01*
X169702Y873712D01*
X169593Y873622D01*
X169481Y873535D01*
X169367Y873451D01*
X169251Y873371D01*
X169133Y873293D01*
X169012Y873219D01*
X168890Y873149D01*
X168766Y873082D01*
X168639Y873018D01*
X168511Y872958D01*
X168382Y872901D01*
X168251Y872849D01*
X168118Y872799D01*
X167984Y872754D01*
X164485Y880191D02*
X164573Y880281D01*
X164665Y880369D01*
X164759Y880454D01*
X164856Y880536D01*
X164955Y880615D01*
X165056Y880692D01*
X165160Y880765D01*
X165265Y880835D01*
X165373Y880902D01*
X165483Y880965D01*
X165595Y881025D01*
X165708Y881082D01*
X165823Y881136D01*
X165940Y881186D01*
X166058Y881232D01*
X166177Y881275D01*
X166298Y881314D01*
X166419Y881350D01*
X166542Y881382D01*
X166666Y881410D01*
X166790Y881435D01*
X166915Y881456D01*
X167041Y881473D01*
X167167Y881486D01*
X167293Y881495D01*
X167420Y881501D01*
X167547Y881503D01*
X164485Y880190D02*
X155736Y872754D01*
X155736Y881503D01*
X370736Y856897D02*
X386484Y856897D01*
X386484Y861272D01*
X386482Y861403D01*
X386476Y861534D01*
X386466Y861664D01*
X386453Y861794D01*
X386435Y861924D01*
X386414Y862053D01*
X386388Y862181D01*
X386359Y862309D01*
X386326Y862436D01*
X386290Y862561D01*
X386249Y862686D01*
X386205Y862809D01*
X386157Y862931D01*
X386106Y863051D01*
X386051Y863170D01*
X385992Y863287D01*
X385930Y863402D01*
X385865Y863515D01*
X385796Y863627D01*
X385724Y863736D01*
X385649Y863843D01*
X385570Y863948D01*
X385489Y864050D01*
X385404Y864150D01*
X385316Y864247D01*
X385226Y864342D01*
X385133Y864434D01*
X385037Y864523D01*
X384938Y864609D01*
X384837Y864692D01*
X384734Y864772D01*
X384628Y864849D01*
X384520Y864922D01*
X384409Y864993D01*
X384297Y865060D01*
X384183Y865124D01*
X384067Y865184D01*
X383949Y865241D01*
X383829Y865294D01*
X383708Y865344D01*
X383585Y865390D01*
X383462Y865432D01*
X383337Y865470D01*
X383210Y865505D01*
X383083Y865536D01*
X382955Y865564D01*
X382827Y865587D01*
X382697Y865606D01*
X382567Y865622D01*
X382437Y865634D01*
X382306Y865642D01*
X382175Y865646D01*
X382045Y865646D01*
X381914Y865642D01*
X381783Y865634D01*
X381653Y865622D01*
X381523Y865606D01*
X381393Y865587D01*
X381265Y865564D01*
X381137Y865536D01*
X381010Y865505D01*
X380883Y865470D01*
X380758Y865432D01*
X380635Y865390D01*
X380512Y865344D01*
X380391Y865294D01*
X380271Y865241D01*
X380153Y865184D01*
X380037Y865124D01*
X379923Y865060D01*
X379811Y864993D01*
X379700Y864922D01*
X379592Y864849D01*
X379486Y864772D01*
X379383Y864692D01*
X379282Y864609D01*
X379183Y864523D01*
X379087Y864434D01*
X378994Y864342D01*
X378904Y864247D01*
X378816Y864150D01*
X378731Y864050D01*
X378650Y863948D01*
X378571Y863843D01*
X378496Y863736D01*
X378424Y863627D01*
X378355Y863515D01*
X378290Y863402D01*
X378228Y863287D01*
X378169Y863170D01*
X378114Y863051D01*
X378063Y862931D01*
X378015Y862809D01*
X377971Y862686D01*
X377930Y862561D01*
X377894Y862436D01*
X377861Y862309D01*
X377832Y862181D01*
X377806Y862053D01*
X377785Y861924D01*
X377767Y861794D01*
X377754Y861664D01*
X377744Y861534D01*
X377738Y861403D01*
X377736Y861272D01*
X377735Y861272D02*
X377735Y856897D01*
X382984Y871754D02*
X386484Y876128D01*
X370736Y876128D01*
X370736Y871754D02*
X370736Y880503D01*
X318290Y886464D02*
X318290Y870716D01*
X313041Y877715D02*
X318290Y886464D01*
X313041Y877715D02*
X307792Y886464D01*
X307792Y870716D01*
X300536Y870716D02*
X300536Y881215D01*
X300974Y885589D02*
X300974Y886464D01*
X300099Y886464D01*
X300099Y885589D01*
X300974Y885589D01*
X291490Y870716D02*
X287991Y870716D01*
X291490Y870716D02*
X291591Y870718D01*
X291691Y870724D01*
X291791Y870733D01*
X291891Y870747D01*
X291990Y870764D01*
X292088Y870785D01*
X292186Y870810D01*
X292282Y870838D01*
X292377Y870871D01*
X292471Y870906D01*
X292564Y870946D01*
X292655Y870989D01*
X292744Y871035D01*
X292831Y871085D01*
X292917Y871138D01*
X293000Y871194D01*
X293081Y871253D01*
X293160Y871316D01*
X293236Y871381D01*
X293310Y871450D01*
X293381Y871521D01*
X293450Y871595D01*
X293515Y871671D01*
X293578Y871750D01*
X293637Y871831D01*
X293693Y871914D01*
X293746Y872000D01*
X293796Y872087D01*
X293842Y872176D01*
X293885Y872267D01*
X293925Y872360D01*
X293961Y872454D01*
X293993Y872549D01*
X294021Y872645D01*
X294046Y872743D01*
X294067Y872841D01*
X294084Y872940D01*
X294098Y873040D01*
X294107Y873140D01*
X294113Y873240D01*
X294115Y873341D01*
X294115Y878590D01*
X294113Y878691D01*
X294107Y878791D01*
X294098Y878891D01*
X294084Y878991D01*
X294067Y879090D01*
X294046Y879188D01*
X294021Y879286D01*
X293993Y879382D01*
X293960Y879477D01*
X293925Y879571D01*
X293885Y879664D01*
X293842Y879755D01*
X293796Y879844D01*
X293746Y879931D01*
X293693Y880017D01*
X293637Y880100D01*
X293578Y880181D01*
X293515Y880260D01*
X293450Y880336D01*
X293381Y880410D01*
X293310Y880481D01*
X293236Y880550D01*
X293160Y880615D01*
X293081Y880678D01*
X293000Y880737D01*
X292917Y880793D01*
X292831Y880846D01*
X292744Y880896D01*
X292655Y880942D01*
X292564Y880985D01*
X292471Y881025D01*
X292377Y881060D01*
X292282Y881093D01*
X292186Y881121D01*
X292088Y881146D01*
X291990Y881167D01*
X291891Y881184D01*
X291791Y881198D01*
X291691Y881207D01*
X291591Y881213D01*
X291490Y881215D01*
X287991Y881215D01*
X281529Y881215D02*
X281529Y870716D01*
X281529Y881215D02*
X276279Y881215D01*
X276279Y879465D01*
X271210Y877715D02*
X271210Y874216D01*
X271210Y877715D02*
X271208Y877833D01*
X271202Y877951D01*
X271192Y878069D01*
X271178Y878186D01*
X271160Y878303D01*
X271138Y878420D01*
X271113Y878535D01*
X271083Y878649D01*
X271049Y878763D01*
X271012Y878875D01*
X270971Y878986D01*
X270926Y879095D01*
X270878Y879203D01*
X270826Y879309D01*
X270770Y879414D01*
X270711Y879516D01*
X270649Y879616D01*
X270583Y879714D01*
X270514Y879810D01*
X270441Y879904D01*
X270366Y879995D01*
X270287Y880083D01*
X270206Y880169D01*
X270121Y880252D01*
X270034Y880332D01*
X269945Y880409D01*
X269852Y880483D01*
X269758Y880553D01*
X269661Y880621D01*
X269561Y880685D01*
X269460Y880746D01*
X269357Y880803D01*
X269251Y880857D01*
X269144Y880908D01*
X269036Y880954D01*
X268926Y880997D01*
X268814Y881036D01*
X268701Y881072D01*
X268587Y881103D01*
X268472Y881131D01*
X268357Y881155D01*
X268240Y881175D01*
X268123Y881191D01*
X268005Y881203D01*
X267887Y881211D01*
X267769Y881215D01*
X267651Y881215D01*
X267533Y881211D01*
X267415Y881203D01*
X267297Y881191D01*
X267180Y881175D01*
X267063Y881155D01*
X266948Y881131D01*
X266833Y881103D01*
X266719Y881072D01*
X266606Y881036D01*
X266494Y880997D01*
X266384Y880954D01*
X266276Y880908D01*
X266169Y880857D01*
X266063Y880803D01*
X265960Y880746D01*
X265859Y880685D01*
X265759Y880621D01*
X265662Y880553D01*
X265568Y880483D01*
X265475Y880409D01*
X265386Y880332D01*
X265299Y880252D01*
X265214Y880169D01*
X265133Y880083D01*
X265054Y879995D01*
X264979Y879904D01*
X264906Y879810D01*
X264837Y879714D01*
X264771Y879616D01*
X264709Y879516D01*
X264650Y879414D01*
X264594Y879309D01*
X264542Y879203D01*
X264494Y879095D01*
X264449Y878986D01*
X264408Y878875D01*
X264371Y878763D01*
X264337Y878649D01*
X264307Y878535D01*
X264282Y878420D01*
X264260Y878303D01*
X264242Y878186D01*
X264228Y878069D01*
X264218Y877951D01*
X264212Y877833D01*
X264210Y877715D01*
X264211Y877715D02*
X264211Y874216D01*
X264210Y874216D02*
X264212Y874098D01*
X264218Y873980D01*
X264228Y873862D01*
X264242Y873745D01*
X264260Y873628D01*
X264282Y873511D01*
X264307Y873396D01*
X264337Y873282D01*
X264371Y873168D01*
X264408Y873056D01*
X264449Y872945D01*
X264494Y872836D01*
X264542Y872728D01*
X264594Y872622D01*
X264650Y872517D01*
X264709Y872415D01*
X264771Y872315D01*
X264837Y872217D01*
X264906Y872121D01*
X264979Y872027D01*
X265054Y871936D01*
X265133Y871848D01*
X265214Y871762D01*
X265299Y871679D01*
X265386Y871599D01*
X265475Y871522D01*
X265568Y871448D01*
X265662Y871378D01*
X265759Y871310D01*
X265859Y871246D01*
X265960Y871185D01*
X266063Y871128D01*
X266169Y871074D01*
X266276Y871023D01*
X266384Y870977D01*
X266494Y870934D01*
X266606Y870895D01*
X266719Y870859D01*
X266833Y870828D01*
X266948Y870800D01*
X267063Y870776D01*
X267180Y870756D01*
X267297Y870740D01*
X267415Y870728D01*
X267533Y870720D01*
X267651Y870716D01*
X267769Y870716D01*
X267887Y870720D01*
X268005Y870728D01*
X268123Y870740D01*
X268240Y870756D01*
X268357Y870776D01*
X268472Y870800D01*
X268587Y870828D01*
X268701Y870859D01*
X268814Y870895D01*
X268926Y870934D01*
X269036Y870977D01*
X269144Y871023D01*
X269251Y871074D01*
X269357Y871128D01*
X269460Y871185D01*
X269561Y871246D01*
X269661Y871310D01*
X269758Y871378D01*
X269852Y871448D01*
X269945Y871522D01*
X270034Y871599D01*
X270121Y871679D01*
X270206Y871762D01*
X270287Y871848D01*
X270366Y871936D01*
X270441Y872027D01*
X270514Y872121D01*
X270583Y872217D01*
X270649Y872315D01*
X270711Y872415D01*
X270770Y872517D01*
X270826Y872622D01*
X270878Y872728D01*
X270926Y872836D01*
X270971Y872945D01*
X271012Y873056D01*
X271049Y873168D01*
X271083Y873282D01*
X271113Y873396D01*
X271138Y873511D01*
X271160Y873628D01*
X271178Y873745D01*
X271192Y873862D01*
X271202Y873980D01*
X271208Y874098D01*
X271210Y874216D01*
X256975Y875090D02*
X256975Y886464D01*
X256974Y875090D02*
X256972Y874959D01*
X256966Y874828D01*
X256956Y874698D01*
X256943Y874568D01*
X256925Y874438D01*
X256904Y874309D01*
X256878Y874181D01*
X256849Y874053D01*
X256816Y873926D01*
X256780Y873801D01*
X256739Y873676D01*
X256695Y873553D01*
X256647Y873431D01*
X256596Y873311D01*
X256541Y873192D01*
X256482Y873075D01*
X256420Y872960D01*
X256355Y872847D01*
X256286Y872735D01*
X256214Y872626D01*
X256139Y872519D01*
X256060Y872414D01*
X255979Y872312D01*
X255894Y872212D01*
X255806Y872115D01*
X255716Y872020D01*
X255623Y871928D01*
X255527Y871839D01*
X255428Y871753D01*
X255327Y871670D01*
X255224Y871590D01*
X255118Y871513D01*
X255010Y871440D01*
X254899Y871369D01*
X254787Y871302D01*
X254673Y871238D01*
X254557Y871178D01*
X254439Y871121D01*
X254319Y871068D01*
X254198Y871018D01*
X254075Y870972D01*
X253952Y870930D01*
X253827Y870892D01*
X253700Y870857D01*
X253573Y870826D01*
X253445Y870798D01*
X253317Y870775D01*
X253187Y870756D01*
X253057Y870740D01*
X252927Y870728D01*
X252796Y870720D01*
X252665Y870716D01*
X252535Y870716D01*
X252404Y870720D01*
X252273Y870728D01*
X252143Y870740D01*
X252013Y870756D01*
X251883Y870775D01*
X251755Y870798D01*
X251627Y870826D01*
X251500Y870857D01*
X251373Y870892D01*
X251248Y870930D01*
X251125Y870972D01*
X251002Y871018D01*
X250881Y871068D01*
X250761Y871121D01*
X250643Y871178D01*
X250527Y871238D01*
X250413Y871302D01*
X250301Y871369D01*
X250190Y871440D01*
X250082Y871513D01*
X249976Y871590D01*
X249873Y871670D01*
X249772Y871753D01*
X249673Y871839D01*
X249577Y871928D01*
X249484Y872020D01*
X249394Y872115D01*
X249306Y872212D01*
X249221Y872312D01*
X249140Y872414D01*
X249061Y872519D01*
X248986Y872626D01*
X248914Y872735D01*
X248845Y872847D01*
X248780Y872960D01*
X248718Y873075D01*
X248659Y873192D01*
X248604Y873311D01*
X248553Y873431D01*
X248505Y873553D01*
X248461Y873676D01*
X248420Y873801D01*
X248384Y873926D01*
X248351Y874053D01*
X248322Y874181D01*
X248296Y874309D01*
X248275Y874438D01*
X248257Y874568D01*
X248244Y874698D01*
X248234Y874828D01*
X248228Y874959D01*
X248226Y875090D01*
X248226Y886464D01*
X232594Y874216D02*
X232596Y874099D01*
X232602Y873982D01*
X232612Y873866D01*
X232625Y873749D01*
X232643Y873634D01*
X232664Y873519D01*
X232689Y873405D01*
X232718Y873291D01*
X232751Y873179D01*
X232788Y873068D01*
X232828Y872958D01*
X232872Y872850D01*
X232919Y872743D01*
X232970Y872637D01*
X233025Y872534D01*
X233083Y872432D01*
X233144Y872333D01*
X233208Y872235D01*
X233276Y872140D01*
X233347Y872047D01*
X233421Y871956D01*
X233498Y871868D01*
X233578Y871783D01*
X233661Y871700D01*
X233746Y871620D01*
X233834Y871543D01*
X233925Y871469D01*
X234018Y871398D01*
X234113Y871330D01*
X234211Y871266D01*
X234310Y871205D01*
X234412Y871147D01*
X234515Y871092D01*
X234621Y871041D01*
X234728Y870994D01*
X234836Y870950D01*
X234946Y870910D01*
X235057Y870873D01*
X235169Y870840D01*
X235283Y870811D01*
X235397Y870786D01*
X235512Y870765D01*
X235627Y870747D01*
X235744Y870734D01*
X235860Y870724D01*
X235977Y870718D01*
X236094Y870716D01*
X236271Y870718D01*
X236448Y870724D01*
X236624Y870735D01*
X236800Y870750D01*
X236976Y870769D01*
X237152Y870792D01*
X237326Y870819D01*
X237501Y870851D01*
X237674Y870887D01*
X237846Y870927D01*
X238017Y870971D01*
X238188Y871019D01*
X238357Y871071D01*
X238524Y871127D01*
X238691Y871187D01*
X238856Y871251D01*
X239019Y871319D01*
X239181Y871391D01*
X239340Y871467D01*
X239498Y871546D01*
X239654Y871630D01*
X239808Y871717D01*
X239960Y871808D01*
X240110Y871902D01*
X240257Y872000D01*
X240402Y872101D01*
X240545Y872206D01*
X240685Y872314D01*
X240822Y872425D01*
X240957Y872540D01*
X241088Y872658D01*
X241217Y872779D01*
X241343Y872903D01*
X240907Y882964D02*
X240905Y883081D01*
X240899Y883198D01*
X240889Y883314D01*
X240876Y883431D01*
X240858Y883546D01*
X240837Y883661D01*
X240812Y883775D01*
X240783Y883889D01*
X240750Y884001D01*
X240713Y884112D01*
X240673Y884222D01*
X240629Y884330D01*
X240582Y884437D01*
X240531Y884543D01*
X240476Y884646D01*
X240418Y884748D01*
X240357Y884847D01*
X240293Y884945D01*
X240225Y885040D01*
X240154Y885133D01*
X240080Y885224D01*
X240003Y885312D01*
X239923Y885397D01*
X239840Y885480D01*
X239755Y885560D01*
X239667Y885637D01*
X239576Y885711D01*
X239483Y885782D01*
X239388Y885850D01*
X239290Y885914D01*
X239191Y885975D01*
X239089Y886033D01*
X238986Y886088D01*
X238880Y886139D01*
X238773Y886186D01*
X238665Y886230D01*
X238555Y886270D01*
X238444Y886307D01*
X238332Y886340D01*
X238218Y886369D01*
X238104Y886394D01*
X237989Y886415D01*
X237874Y886433D01*
X237757Y886446D01*
X237641Y886456D01*
X237524Y886462D01*
X237407Y886464D01*
X237251Y886462D01*
X237094Y886457D01*
X236938Y886447D01*
X236782Y886434D01*
X236627Y886417D01*
X236472Y886397D01*
X236317Y886373D01*
X236163Y886345D01*
X236010Y886314D01*
X235858Y886279D01*
X235706Y886240D01*
X235556Y886197D01*
X235406Y886152D01*
X235258Y886102D01*
X235111Y886049D01*
X234965Y885993D01*
X234820Y885933D01*
X234677Y885869D01*
X234536Y885803D01*
X234396Y885733D01*
X234258Y885659D01*
X234122Y885582D01*
X233987Y885503D01*
X233855Y885419D01*
X233724Y885333D01*
X233596Y885244D01*
X233470Y885152D01*
X239156Y879902D02*
X239255Y879962D01*
X239351Y880026D01*
X239445Y880092D01*
X239537Y880161D01*
X239627Y880234D01*
X239715Y880309D01*
X239799Y880387D01*
X239882Y880468D01*
X239961Y880551D01*
X240038Y880637D01*
X240112Y880725D01*
X240184Y880816D01*
X240252Y880909D01*
X240317Y881004D01*
X240379Y881102D01*
X240438Y881201D01*
X240493Y881302D01*
X240546Y881405D01*
X240595Y881509D01*
X240640Y881615D01*
X240682Y881722D01*
X240721Y881831D01*
X240756Y881941D01*
X240787Y882052D01*
X240815Y882164D01*
X240839Y882276D01*
X240859Y882390D01*
X240876Y882504D01*
X240889Y882619D01*
X240899Y882734D01*
X240904Y882849D01*
X240906Y882964D01*
X234345Y877278D02*
X234246Y877218D01*
X234150Y877154D01*
X234056Y877088D01*
X233964Y877019D01*
X233874Y876946D01*
X233786Y876871D01*
X233702Y876793D01*
X233619Y876712D01*
X233540Y876629D01*
X233463Y876543D01*
X233389Y876455D01*
X233317Y876364D01*
X233249Y876271D01*
X233184Y876176D01*
X233122Y876078D01*
X233063Y875979D01*
X233008Y875878D01*
X232955Y875775D01*
X232907Y875671D01*
X232861Y875565D01*
X232819Y875458D01*
X232780Y875349D01*
X232745Y875239D01*
X232714Y875128D01*
X232686Y875016D01*
X232662Y874904D01*
X232642Y874790D01*
X232625Y874676D01*
X232612Y874561D01*
X232602Y874446D01*
X232597Y874331D01*
X232595Y874216D01*
X234344Y877278D02*
X239156Y879902D01*
X225459Y879465D02*
X221084Y879465D01*
X221084Y879464D02*
X220953Y879462D01*
X220822Y879456D01*
X220692Y879446D01*
X220562Y879433D01*
X220432Y879415D01*
X220303Y879394D01*
X220175Y879368D01*
X220047Y879339D01*
X219920Y879306D01*
X219795Y879270D01*
X219670Y879229D01*
X219547Y879185D01*
X219425Y879137D01*
X219305Y879086D01*
X219186Y879031D01*
X219069Y878972D01*
X218954Y878910D01*
X218841Y878845D01*
X218729Y878776D01*
X218620Y878704D01*
X218513Y878629D01*
X218408Y878550D01*
X218306Y878469D01*
X218206Y878384D01*
X218109Y878296D01*
X218014Y878206D01*
X217922Y878113D01*
X217833Y878017D01*
X217747Y877918D01*
X217664Y877817D01*
X217584Y877714D01*
X217507Y877608D01*
X217434Y877500D01*
X217363Y877389D01*
X217296Y877277D01*
X217232Y877163D01*
X217172Y877047D01*
X217115Y876929D01*
X217062Y876809D01*
X217012Y876688D01*
X216966Y876565D01*
X216924Y876442D01*
X216886Y876317D01*
X216851Y876190D01*
X216820Y876063D01*
X216792Y875935D01*
X216769Y875807D01*
X216750Y875677D01*
X216734Y875547D01*
X216722Y875417D01*
X216714Y875286D01*
X216710Y875155D01*
X216710Y875025D01*
X216714Y874894D01*
X216722Y874763D01*
X216734Y874633D01*
X216750Y874503D01*
X216769Y874373D01*
X216792Y874245D01*
X216820Y874117D01*
X216851Y873990D01*
X216886Y873863D01*
X216924Y873738D01*
X216966Y873615D01*
X217012Y873492D01*
X217062Y873371D01*
X217115Y873251D01*
X217172Y873133D01*
X217232Y873017D01*
X217296Y872903D01*
X217363Y872791D01*
X217434Y872680D01*
X217507Y872572D01*
X217584Y872466D01*
X217664Y872363D01*
X217747Y872262D01*
X217833Y872163D01*
X217922Y872067D01*
X218014Y871974D01*
X218109Y871884D01*
X218206Y871796D01*
X218306Y871711D01*
X218408Y871630D01*
X218513Y871551D01*
X218620Y871476D01*
X218729Y871404D01*
X218841Y871335D01*
X218954Y871270D01*
X219069Y871208D01*
X219186Y871149D01*
X219305Y871094D01*
X219425Y871043D01*
X219547Y870995D01*
X219670Y870951D01*
X219795Y870910D01*
X219920Y870874D01*
X220047Y870841D01*
X220175Y870812D01*
X220303Y870786D01*
X220432Y870765D01*
X220562Y870747D01*
X220692Y870734D01*
X220822Y870724D01*
X220953Y870718D01*
X221084Y870716D01*
X225459Y870716D01*
X225459Y886464D01*
X221084Y886464D01*
X220966Y886462D01*
X220848Y886456D01*
X220730Y886446D01*
X220613Y886432D01*
X220496Y886414D01*
X220379Y886392D01*
X220264Y886367D01*
X220150Y886337D01*
X220036Y886303D01*
X219924Y886266D01*
X219813Y886225D01*
X219704Y886180D01*
X219596Y886132D01*
X219490Y886080D01*
X219385Y886024D01*
X219283Y885965D01*
X219183Y885903D01*
X219085Y885837D01*
X218989Y885768D01*
X218895Y885695D01*
X218804Y885620D01*
X218716Y885541D01*
X218630Y885460D01*
X218547Y885375D01*
X218467Y885288D01*
X218390Y885199D01*
X218316Y885106D01*
X218246Y885012D01*
X218178Y884915D01*
X218114Y884815D01*
X218053Y884714D01*
X217996Y884611D01*
X217942Y884505D01*
X217891Y884398D01*
X217845Y884290D01*
X217802Y884180D01*
X217763Y884068D01*
X217727Y883955D01*
X217696Y883841D01*
X217668Y883726D01*
X217644Y883611D01*
X217624Y883494D01*
X217608Y883377D01*
X217596Y883259D01*
X217588Y883141D01*
X217584Y883023D01*
X217584Y882905D01*
X217588Y882787D01*
X217596Y882669D01*
X217608Y882551D01*
X217624Y882434D01*
X217644Y882317D01*
X217668Y882202D01*
X217696Y882087D01*
X217727Y881973D01*
X217763Y881860D01*
X217802Y881748D01*
X217845Y881638D01*
X217891Y881530D01*
X217942Y881423D01*
X217996Y881317D01*
X218053Y881214D01*
X218114Y881113D01*
X218178Y881013D01*
X218246Y880916D01*
X218316Y880822D01*
X218390Y880729D01*
X218467Y880640D01*
X218547Y880553D01*
X218630Y880468D01*
X218716Y880387D01*
X218804Y880308D01*
X218895Y880233D01*
X218989Y880160D01*
X219085Y880091D01*
X219183Y880025D01*
X219283Y879963D01*
X219385Y879904D01*
X219490Y879848D01*
X219596Y879796D01*
X219704Y879748D01*
X219813Y879703D01*
X219924Y879662D01*
X220036Y879625D01*
X220150Y879591D01*
X220264Y879561D01*
X220379Y879536D01*
X220496Y879514D01*
X220613Y879496D01*
X220730Y879482D01*
X220848Y879472D01*
X220966Y879466D01*
X221084Y879464D01*
X299201Y377436D02*
X299203Y377319D01*
X299209Y377202D01*
X299219Y377086D01*
X299232Y376969D01*
X299250Y376854D01*
X299271Y376739D01*
X299296Y376625D01*
X299325Y376511D01*
X299358Y376399D01*
X299395Y376288D01*
X299435Y376178D01*
X299479Y376070D01*
X299526Y375963D01*
X299577Y375857D01*
X299632Y375754D01*
X299690Y375652D01*
X299751Y375553D01*
X299815Y375455D01*
X299883Y375360D01*
X299954Y375267D01*
X300028Y375176D01*
X300105Y375088D01*
X300185Y375003D01*
X300268Y374920D01*
X300353Y374840D01*
X300441Y374763D01*
X300532Y374689D01*
X300625Y374618D01*
X300720Y374550D01*
X300818Y374486D01*
X300917Y374425D01*
X301019Y374367D01*
X301122Y374312D01*
X301228Y374261D01*
X301335Y374214D01*
X301443Y374170D01*
X301553Y374130D01*
X301664Y374093D01*
X301776Y374060D01*
X301890Y374031D01*
X302004Y374006D01*
X302119Y373985D01*
X302234Y373967D01*
X302351Y373954D01*
X302467Y373944D01*
X302584Y373938D01*
X302701Y373936D01*
X302878Y373938D01*
X303055Y373944D01*
X303231Y373955D01*
X303407Y373970D01*
X303583Y373989D01*
X303759Y374012D01*
X303933Y374039D01*
X304108Y374071D01*
X304281Y374107D01*
X304453Y374147D01*
X304624Y374191D01*
X304795Y374239D01*
X304964Y374291D01*
X305131Y374347D01*
X305298Y374407D01*
X305463Y374471D01*
X305626Y374539D01*
X305788Y374611D01*
X305947Y374687D01*
X306105Y374766D01*
X306261Y374850D01*
X306415Y374937D01*
X306567Y375028D01*
X306717Y375122D01*
X306864Y375220D01*
X307009Y375321D01*
X307152Y375426D01*
X307292Y375534D01*
X307429Y375645D01*
X307564Y375760D01*
X307695Y375878D01*
X307824Y375999D01*
X307950Y376123D01*
X307513Y386184D02*
X307511Y386301D01*
X307505Y386418D01*
X307495Y386534D01*
X307482Y386651D01*
X307464Y386766D01*
X307443Y386881D01*
X307418Y386995D01*
X307389Y387109D01*
X307356Y387221D01*
X307319Y387332D01*
X307279Y387442D01*
X307235Y387550D01*
X307188Y387657D01*
X307137Y387763D01*
X307082Y387866D01*
X307024Y387968D01*
X306963Y388067D01*
X306899Y388165D01*
X306831Y388260D01*
X306760Y388353D01*
X306686Y388444D01*
X306609Y388532D01*
X306529Y388617D01*
X306446Y388700D01*
X306361Y388780D01*
X306273Y388857D01*
X306182Y388931D01*
X306089Y389002D01*
X305994Y389070D01*
X305896Y389134D01*
X305797Y389195D01*
X305695Y389253D01*
X305592Y389308D01*
X305486Y389359D01*
X305379Y389406D01*
X305271Y389450D01*
X305161Y389490D01*
X305050Y389527D01*
X304938Y389560D01*
X304824Y389589D01*
X304710Y389614D01*
X304595Y389635D01*
X304480Y389653D01*
X304363Y389666D01*
X304247Y389676D01*
X304130Y389682D01*
X304013Y389684D01*
X303857Y389682D01*
X303700Y389677D01*
X303544Y389667D01*
X303388Y389654D01*
X303233Y389637D01*
X303078Y389617D01*
X302923Y389593D01*
X302769Y389565D01*
X302616Y389534D01*
X302464Y389499D01*
X302312Y389460D01*
X302162Y389417D01*
X302012Y389372D01*
X301864Y389322D01*
X301717Y389269D01*
X301571Y389213D01*
X301426Y389153D01*
X301283Y389089D01*
X301142Y389023D01*
X301002Y388953D01*
X300864Y388879D01*
X300728Y388802D01*
X300593Y388723D01*
X300461Y388639D01*
X300330Y388553D01*
X300202Y388464D01*
X300076Y388372D01*
X305762Y383122D02*
X305861Y383182D01*
X305957Y383246D01*
X306051Y383312D01*
X306143Y383381D01*
X306233Y383454D01*
X306321Y383529D01*
X306405Y383607D01*
X306488Y383688D01*
X306567Y383771D01*
X306644Y383857D01*
X306718Y383945D01*
X306790Y384036D01*
X306858Y384129D01*
X306923Y384224D01*
X306985Y384322D01*
X307044Y384421D01*
X307099Y384522D01*
X307152Y384625D01*
X307201Y384729D01*
X307246Y384835D01*
X307288Y384942D01*
X307327Y385051D01*
X307362Y385161D01*
X307393Y385272D01*
X307421Y385384D01*
X307445Y385496D01*
X307465Y385610D01*
X307482Y385724D01*
X307495Y385839D01*
X307505Y385954D01*
X307510Y386069D01*
X307512Y386184D01*
X300951Y380498D02*
X300852Y380438D01*
X300756Y380374D01*
X300662Y380308D01*
X300570Y380239D01*
X300480Y380166D01*
X300392Y380091D01*
X300308Y380013D01*
X300225Y379932D01*
X300146Y379849D01*
X300069Y379763D01*
X299995Y379675D01*
X299923Y379584D01*
X299855Y379491D01*
X299790Y379396D01*
X299728Y379298D01*
X299669Y379199D01*
X299614Y379098D01*
X299561Y378995D01*
X299513Y378891D01*
X299467Y378785D01*
X299425Y378678D01*
X299386Y378569D01*
X299351Y378459D01*
X299320Y378348D01*
X299292Y378236D01*
X299268Y378124D01*
X299248Y378010D01*
X299231Y377896D01*
X299218Y377781D01*
X299208Y377666D01*
X299203Y377551D01*
X299201Y377436D01*
X300951Y380498D02*
X305763Y383122D01*
X292319Y389684D02*
X292319Y373936D01*
X292319Y389684D02*
X287944Y389684D01*
X287814Y389682D01*
X287685Y389676D01*
X287556Y389667D01*
X287427Y389653D01*
X287298Y389636D01*
X287170Y389615D01*
X287043Y389590D01*
X286917Y389562D01*
X286791Y389529D01*
X286667Y389493D01*
X286543Y389454D01*
X286421Y389410D01*
X286300Y389363D01*
X286181Y389313D01*
X286063Y389259D01*
X285947Y389201D01*
X285832Y389140D01*
X285720Y389076D01*
X285609Y389009D01*
X285500Y388938D01*
X285394Y388864D01*
X285290Y388787D01*
X285188Y388707D01*
X285089Y388623D01*
X284992Y388537D01*
X284897Y388448D01*
X284806Y388357D01*
X284717Y388262D01*
X284631Y388165D01*
X284547Y388066D01*
X284467Y387964D01*
X284390Y387860D01*
X284316Y387754D01*
X284245Y387645D01*
X284178Y387534D01*
X284114Y387422D01*
X284053Y387307D01*
X283995Y387191D01*
X283941Y387073D01*
X283891Y386954D01*
X283844Y386833D01*
X283800Y386711D01*
X283761Y386587D01*
X283725Y386463D01*
X283692Y386337D01*
X283664Y386211D01*
X283639Y386084D01*
X283618Y385956D01*
X283601Y385827D01*
X283587Y385698D01*
X283578Y385569D01*
X283572Y385440D01*
X283570Y385310D01*
X283570Y378310D01*
X283572Y378180D01*
X283578Y378051D01*
X283587Y377922D01*
X283601Y377793D01*
X283618Y377664D01*
X283639Y377536D01*
X283664Y377409D01*
X283692Y377283D01*
X283725Y377157D01*
X283761Y377033D01*
X283800Y376909D01*
X283844Y376787D01*
X283891Y376666D01*
X283941Y376547D01*
X283995Y376429D01*
X284053Y376313D01*
X284114Y376198D01*
X284178Y376086D01*
X284245Y375975D01*
X284316Y375866D01*
X284390Y375760D01*
X284467Y375656D01*
X284547Y375554D01*
X284631Y375455D01*
X284717Y375358D01*
X284806Y375263D01*
X284897Y375172D01*
X284992Y375083D01*
X285089Y374997D01*
X285188Y374913D01*
X285290Y374833D01*
X285394Y374756D01*
X285500Y374682D01*
X285609Y374611D01*
X285720Y374544D01*
X285832Y374480D01*
X285947Y374419D01*
X286063Y374361D01*
X286181Y374307D01*
X286300Y374257D01*
X286421Y374210D01*
X286543Y374166D01*
X286667Y374127D01*
X286791Y374091D01*
X286917Y374058D01*
X287043Y374030D01*
X287170Y374005D01*
X287298Y373984D01*
X287427Y373967D01*
X287556Y373953D01*
X287685Y373944D01*
X287814Y373938D01*
X287944Y373936D01*
X292319Y373936D01*
X264378Y373936D02*
X260878Y373936D01*
X264378Y373936D02*
X264495Y373938D01*
X264612Y373944D01*
X264728Y373954D01*
X264845Y373967D01*
X264960Y373985D01*
X265075Y374006D01*
X265189Y374031D01*
X265303Y374060D01*
X265415Y374093D01*
X265526Y374130D01*
X265636Y374170D01*
X265744Y374214D01*
X265851Y374261D01*
X265957Y374312D01*
X266060Y374367D01*
X266162Y374425D01*
X266261Y374486D01*
X266359Y374550D01*
X266454Y374618D01*
X266547Y374689D01*
X266638Y374763D01*
X266726Y374840D01*
X266811Y374920D01*
X266894Y375003D01*
X266974Y375088D01*
X267051Y375176D01*
X267125Y375267D01*
X267196Y375360D01*
X267264Y375455D01*
X267328Y375553D01*
X267389Y375652D01*
X267447Y375754D01*
X267502Y375857D01*
X267553Y375963D01*
X267600Y376070D01*
X267644Y376178D01*
X267684Y376288D01*
X267721Y376399D01*
X267754Y376511D01*
X267783Y376625D01*
X267808Y376739D01*
X267829Y376854D01*
X267847Y376970D01*
X267860Y377086D01*
X267870Y377202D01*
X267876Y377319D01*
X267878Y377436D01*
X267877Y377436D02*
X267877Y386184D01*
X267878Y386184D02*
X267876Y386301D01*
X267870Y386418D01*
X267860Y386534D01*
X267847Y386650D01*
X267829Y386766D01*
X267808Y386881D01*
X267783Y386995D01*
X267754Y387109D01*
X267721Y387221D01*
X267684Y387332D01*
X267644Y387442D01*
X267600Y387550D01*
X267553Y387657D01*
X267502Y387763D01*
X267447Y387866D01*
X267389Y387968D01*
X267328Y388067D01*
X267264Y388165D01*
X267196Y388260D01*
X267125Y388353D01*
X267051Y388444D01*
X266974Y388532D01*
X266894Y388617D01*
X266811Y388700D01*
X266726Y388780D01*
X266638Y388857D01*
X266547Y388931D01*
X266454Y389002D01*
X266359Y389070D01*
X266261Y389134D01*
X266162Y389195D01*
X266060Y389253D01*
X265957Y389308D01*
X265851Y389359D01*
X265744Y389406D01*
X265636Y389450D01*
X265526Y389490D01*
X265415Y389527D01*
X265303Y389560D01*
X265189Y389589D01*
X265075Y389614D01*
X264960Y389635D01*
X264845Y389653D01*
X264728Y389666D01*
X264612Y389676D01*
X264495Y389682D01*
X264378Y389684D01*
X260878Y389684D01*
X251997Y380060D02*
X248060Y380060D01*
X251997Y380060D02*
X252106Y380058D01*
X252215Y380052D01*
X252324Y380042D01*
X252433Y380029D01*
X252541Y380011D01*
X252648Y379990D01*
X252754Y379965D01*
X252860Y379936D01*
X252964Y379903D01*
X253067Y379867D01*
X253169Y379827D01*
X253269Y379783D01*
X253368Y379736D01*
X253464Y379685D01*
X253559Y379631D01*
X253652Y379574D01*
X253743Y379513D01*
X253832Y379449D01*
X253918Y379382D01*
X254002Y379312D01*
X254084Y379239D01*
X254162Y379163D01*
X254238Y379085D01*
X254311Y379003D01*
X254381Y378919D01*
X254448Y378833D01*
X254512Y378744D01*
X254573Y378653D01*
X254630Y378560D01*
X254684Y378465D01*
X254735Y378369D01*
X254782Y378270D01*
X254826Y378170D01*
X254866Y378068D01*
X254902Y377965D01*
X254935Y377861D01*
X254964Y377755D01*
X254989Y377649D01*
X255010Y377542D01*
X255028Y377434D01*
X255041Y377325D01*
X255051Y377216D01*
X255057Y377107D01*
X255059Y376998D01*
X255057Y376889D01*
X255051Y376780D01*
X255041Y376671D01*
X255028Y376562D01*
X255010Y376454D01*
X254989Y376347D01*
X254964Y376241D01*
X254935Y376135D01*
X254902Y376031D01*
X254866Y375928D01*
X254826Y375826D01*
X254782Y375726D01*
X254735Y375627D01*
X254684Y375531D01*
X254630Y375436D01*
X254573Y375343D01*
X254512Y375252D01*
X254448Y375163D01*
X254381Y375077D01*
X254311Y374993D01*
X254238Y374911D01*
X254162Y374833D01*
X254084Y374757D01*
X254002Y374684D01*
X253918Y374614D01*
X253832Y374547D01*
X253743Y374483D01*
X253652Y374422D01*
X253559Y374365D01*
X253464Y374311D01*
X253368Y374260D01*
X253269Y374213D01*
X253169Y374169D01*
X253067Y374129D01*
X252964Y374093D01*
X252860Y374060D01*
X252754Y374031D01*
X252648Y374006D01*
X252541Y373985D01*
X252433Y373967D01*
X252324Y373954D01*
X252215Y373944D01*
X252106Y373938D01*
X251997Y373936D01*
X248060Y373936D01*
X248060Y381810D01*
X248062Y381911D01*
X248068Y382011D01*
X248077Y382111D01*
X248091Y382211D01*
X248108Y382310D01*
X248129Y382408D01*
X248154Y382506D01*
X248182Y382602D01*
X248215Y382697D01*
X248250Y382791D01*
X248290Y382884D01*
X248333Y382975D01*
X248379Y383064D01*
X248429Y383151D01*
X248482Y383237D01*
X248538Y383320D01*
X248597Y383401D01*
X248660Y383480D01*
X248725Y383556D01*
X248794Y383630D01*
X248865Y383701D01*
X248939Y383770D01*
X249015Y383835D01*
X249094Y383898D01*
X249175Y383957D01*
X249258Y384013D01*
X249344Y384066D01*
X249431Y384116D01*
X249520Y384162D01*
X249611Y384205D01*
X249704Y384245D01*
X249798Y384281D01*
X249893Y384313D01*
X249989Y384341D01*
X250087Y384366D01*
X250185Y384387D01*
X250284Y384404D01*
X250384Y384418D01*
X250484Y384427D01*
X250584Y384433D01*
X250685Y384435D01*
X254184Y384435D01*
X240280Y384435D02*
X240280Y373936D01*
X240280Y384435D02*
X235030Y384435D01*
X235030Y382685D01*
X223050Y389684D02*
X223050Y373936D01*
X227425Y373936D01*
X227526Y373938D01*
X227626Y373944D01*
X227726Y373953D01*
X227826Y373967D01*
X227925Y373984D01*
X228023Y374005D01*
X228121Y374030D01*
X228217Y374058D01*
X228312Y374091D01*
X228406Y374126D01*
X228499Y374166D01*
X228590Y374209D01*
X228679Y374255D01*
X228766Y374305D01*
X228852Y374358D01*
X228935Y374414D01*
X229016Y374473D01*
X229095Y374536D01*
X229171Y374601D01*
X229245Y374670D01*
X229316Y374741D01*
X229385Y374815D01*
X229450Y374891D01*
X229513Y374970D01*
X229572Y375051D01*
X229628Y375134D01*
X229681Y375220D01*
X229731Y375307D01*
X229777Y375396D01*
X229820Y375487D01*
X229860Y375580D01*
X229896Y375674D01*
X229928Y375769D01*
X229956Y375865D01*
X229981Y375963D01*
X230002Y376061D01*
X230019Y376160D01*
X230033Y376260D01*
X230042Y376360D01*
X230048Y376460D01*
X230050Y376561D01*
X230049Y376561D02*
X230049Y381810D01*
X230050Y381810D02*
X230048Y381911D01*
X230042Y382011D01*
X230033Y382111D01*
X230019Y382211D01*
X230002Y382310D01*
X229981Y382408D01*
X229956Y382506D01*
X229928Y382602D01*
X229895Y382697D01*
X229860Y382791D01*
X229820Y382884D01*
X229777Y382975D01*
X229731Y383064D01*
X229681Y383151D01*
X229628Y383237D01*
X229572Y383320D01*
X229513Y383401D01*
X229450Y383480D01*
X229385Y383556D01*
X229316Y383630D01*
X229245Y383701D01*
X229171Y383770D01*
X229095Y383835D01*
X229016Y383898D01*
X228935Y383957D01*
X228852Y384013D01*
X228766Y384066D01*
X228679Y384116D01*
X228590Y384162D01*
X228499Y384205D01*
X228406Y384245D01*
X228312Y384280D01*
X228217Y384313D01*
X228121Y384341D01*
X228023Y384366D01*
X227925Y384387D01*
X227826Y384404D01*
X227726Y384418D01*
X227626Y384427D01*
X227526Y384433D01*
X227425Y384435D01*
X223050Y384435D01*
D15*
X202500Y357700D02*
X202500Y340700D01*
X200500Y340700D01*
X202500Y340700D02*
X331500Y340700D01*
X331500Y339700D01*
X331500Y340700D02*
X331500Y356700D01*
X74738Y840690D02*
X66666Y840690D01*
X66666Y840691D02*
X66555Y840693D01*
X66445Y840699D01*
X66334Y840709D01*
X66224Y840723D01*
X66115Y840740D01*
X66006Y840762D01*
X65898Y840787D01*
X65792Y840817D01*
X65686Y840850D01*
X65581Y840887D01*
X65478Y840927D01*
X65377Y840972D01*
X65277Y841019D01*
X65178Y841071D01*
X65082Y841126D01*
X64988Y841184D01*
X64896Y841245D01*
X64806Y841310D01*
X64718Y841378D01*
X64633Y841449D01*
X64551Y841523D01*
X64471Y841600D01*
X64394Y841680D01*
X64320Y841762D01*
X64249Y841847D01*
X64181Y841935D01*
X64116Y842025D01*
X64055Y842117D01*
X63997Y842211D01*
X63942Y842307D01*
X63890Y842406D01*
X63843Y842506D01*
X63798Y842607D01*
X63758Y842710D01*
X63721Y842815D01*
X63688Y842921D01*
X63658Y843027D01*
X63633Y843135D01*
X63611Y843244D01*
X63594Y843353D01*
X63580Y843463D01*
X63570Y843574D01*
X63564Y843684D01*
X63562Y843795D01*
X63564Y843906D01*
X63570Y844016D01*
X63580Y844127D01*
X63594Y844237D01*
X63611Y844346D01*
X63633Y844455D01*
X63658Y844563D01*
X63688Y844669D01*
X63721Y844775D01*
X63758Y844880D01*
X63798Y844983D01*
X63843Y845084D01*
X63890Y845184D01*
X63942Y845283D01*
X63997Y845379D01*
X64055Y845473D01*
X64116Y845565D01*
X64181Y845655D01*
X64249Y845743D01*
X64320Y845828D01*
X64394Y845910D01*
X64471Y845990D01*
X64551Y846067D01*
X64633Y846141D01*
X64718Y846212D01*
X64806Y846280D01*
X64896Y846345D01*
X64988Y846406D01*
X65082Y846464D01*
X65178Y846519D01*
X65277Y846571D01*
X65377Y846618D01*
X65478Y846663D01*
X65581Y846703D01*
X65686Y846740D01*
X65792Y846773D01*
X65898Y846803D01*
X66006Y846828D01*
X66115Y846850D01*
X66224Y846867D01*
X66334Y846881D01*
X66445Y846891D01*
X66555Y846897D01*
X66666Y846899D01*
X74738Y846899D01*
X72254Y852501D02*
X74738Y855606D01*
X63562Y855606D01*
X63562Y858710D02*
X63562Y852501D01*
D10*
X282800Y323850D02*
X282807Y324390D01*
X282826Y324929D01*
X282860Y325468D01*
X282906Y326006D01*
X282965Y326543D01*
X283038Y327078D01*
X283124Y327611D01*
X283223Y328142D01*
X283335Y328670D01*
X283459Y329196D01*
X283597Y329718D01*
X283747Y330236D01*
X283910Y330751D01*
X284086Y331262D01*
X284274Y331768D01*
X284475Y332269D01*
X284687Y332765D01*
X284912Y333256D01*
X285149Y333741D01*
X285398Y334221D01*
X285658Y334694D01*
X285930Y335160D01*
X286213Y335620D01*
X286508Y336073D01*
X286813Y336518D01*
X287129Y336955D01*
X287456Y337385D01*
X287794Y337807D01*
X288141Y338220D01*
X288499Y338624D01*
X288867Y339020D01*
X289244Y339406D01*
X289630Y339783D01*
X290026Y340151D01*
X290430Y340509D01*
X290843Y340856D01*
X291265Y341194D01*
X291695Y341521D01*
X292132Y341837D01*
X292577Y342142D01*
X293030Y342437D01*
X293490Y342720D01*
X293956Y342992D01*
X294429Y343252D01*
X294909Y343501D01*
X295394Y343738D01*
X295885Y343963D01*
X296381Y344175D01*
X296882Y344376D01*
X297388Y344564D01*
X297899Y344740D01*
X298414Y344903D01*
X298932Y345053D01*
X299454Y345191D01*
X299980Y345315D01*
X300508Y345427D01*
X301039Y345526D01*
X301572Y345612D01*
X302107Y345685D01*
X302644Y345744D01*
X303182Y345790D01*
X303721Y345824D01*
X304260Y345843D01*
X304800Y345850D01*
X305340Y345843D01*
X305879Y345824D01*
X306418Y345790D01*
X306956Y345744D01*
X307493Y345685D01*
X308028Y345612D01*
X308561Y345526D01*
X309092Y345427D01*
X309620Y345315D01*
X310146Y345191D01*
X310668Y345053D01*
X311186Y344903D01*
X311701Y344740D01*
X312212Y344564D01*
X312718Y344376D01*
X313219Y344175D01*
X313715Y343963D01*
X314206Y343738D01*
X314691Y343501D01*
X315171Y343252D01*
X315644Y342992D01*
X316110Y342720D01*
X316570Y342437D01*
X317023Y342142D01*
X317468Y341837D01*
X317905Y341521D01*
X318335Y341194D01*
X318757Y340856D01*
X319170Y340509D01*
X319574Y340151D01*
X319970Y339783D01*
X320356Y339406D01*
X320733Y339020D01*
X321101Y338624D01*
X321459Y338220D01*
X321806Y337807D01*
X322144Y337385D01*
X322471Y336955D01*
X322787Y336518D01*
X323092Y336073D01*
X323387Y335620D01*
X323670Y335160D01*
X323942Y334694D01*
X324202Y334221D01*
X324451Y333741D01*
X324688Y333256D01*
X324913Y332765D01*
X325125Y332269D01*
X325326Y331768D01*
X325514Y331262D01*
X325690Y330751D01*
X325853Y330236D01*
X326003Y329718D01*
X326141Y329196D01*
X326265Y328670D01*
X326377Y328142D01*
X326476Y327611D01*
X326562Y327078D01*
X326635Y326543D01*
X326694Y326006D01*
X326740Y325468D01*
X326774Y324929D01*
X326793Y324390D01*
X326800Y323850D01*
X326793Y323310D01*
X326774Y322771D01*
X326740Y322232D01*
X326694Y321694D01*
X326635Y321157D01*
X326562Y320622D01*
X326476Y320089D01*
X326377Y319558D01*
X326265Y319030D01*
X326141Y318504D01*
X326003Y317982D01*
X325853Y317464D01*
X325690Y316949D01*
X325514Y316438D01*
X325326Y315932D01*
X325125Y315431D01*
X324913Y314935D01*
X324688Y314444D01*
X324451Y313959D01*
X324202Y313479D01*
X323942Y313006D01*
X323670Y312540D01*
X323387Y312080D01*
X323092Y311627D01*
X322787Y311182D01*
X322471Y310745D01*
X322144Y310315D01*
X321806Y309893D01*
X321459Y309480D01*
X321101Y309076D01*
X320733Y308680D01*
X320356Y308294D01*
X319970Y307917D01*
X319574Y307549D01*
X319170Y307191D01*
X318757Y306844D01*
X318335Y306506D01*
X317905Y306179D01*
X317468Y305863D01*
X317023Y305558D01*
X316570Y305263D01*
X316110Y304980D01*
X315644Y304708D01*
X315171Y304448D01*
X314691Y304199D01*
X314206Y303962D01*
X313715Y303737D01*
X313219Y303525D01*
X312718Y303324D01*
X312212Y303136D01*
X311701Y302960D01*
X311186Y302797D01*
X310668Y302647D01*
X310146Y302509D01*
X309620Y302385D01*
X309092Y302273D01*
X308561Y302174D01*
X308028Y302088D01*
X307493Y302015D01*
X306956Y301956D01*
X306418Y301910D01*
X305879Y301876D01*
X305340Y301857D01*
X304800Y301850D01*
X304260Y301857D01*
X303721Y301876D01*
X303182Y301910D01*
X302644Y301956D01*
X302107Y302015D01*
X301572Y302088D01*
X301039Y302174D01*
X300508Y302273D01*
X299980Y302385D01*
X299454Y302509D01*
X298932Y302647D01*
X298414Y302797D01*
X297899Y302960D01*
X297388Y303136D01*
X296882Y303324D01*
X296381Y303525D01*
X295885Y303737D01*
X295394Y303962D01*
X294909Y304199D01*
X294429Y304448D01*
X293956Y304708D01*
X293490Y304980D01*
X293030Y305263D01*
X292577Y305558D01*
X292132Y305863D01*
X291695Y306179D01*
X291265Y306506D01*
X290843Y306844D01*
X290430Y307191D01*
X290026Y307549D01*
X289630Y307917D01*
X289244Y308294D01*
X288867Y308680D01*
X288499Y309076D01*
X288141Y309480D01*
X287794Y309893D01*
X287456Y310315D01*
X287129Y310745D01*
X286813Y311182D01*
X286508Y311627D01*
X286213Y312080D01*
X285930Y312540D01*
X285658Y313006D01*
X285398Y313479D01*
X285149Y313959D01*
X284912Y314444D01*
X284687Y314935D01*
X284475Y315431D01*
X284274Y315932D01*
X284086Y316438D01*
X283910Y316949D01*
X283747Y317464D01*
X283597Y317982D01*
X283459Y318504D01*
X283335Y319030D01*
X283223Y319558D01*
X283124Y320089D01*
X283038Y320622D01*
X282965Y321157D01*
X282906Y321694D01*
X282860Y322232D01*
X282826Y322771D01*
X282807Y323310D01*
X282800Y323850D01*
X282800Y895350D02*
X282807Y895890D01*
X282826Y896429D01*
X282860Y896968D01*
X282906Y897506D01*
X282965Y898043D01*
X283038Y898578D01*
X283124Y899111D01*
X283223Y899642D01*
X283335Y900170D01*
X283459Y900696D01*
X283597Y901218D01*
X283747Y901736D01*
X283910Y902251D01*
X284086Y902762D01*
X284274Y903268D01*
X284475Y903769D01*
X284687Y904265D01*
X284912Y904756D01*
X285149Y905241D01*
X285398Y905721D01*
X285658Y906194D01*
X285930Y906660D01*
X286213Y907120D01*
X286508Y907573D01*
X286813Y908018D01*
X287129Y908455D01*
X287456Y908885D01*
X287794Y909307D01*
X288141Y909720D01*
X288499Y910124D01*
X288867Y910520D01*
X289244Y910906D01*
X289630Y911283D01*
X290026Y911651D01*
X290430Y912009D01*
X290843Y912356D01*
X291265Y912694D01*
X291695Y913021D01*
X292132Y913337D01*
X292577Y913642D01*
X293030Y913937D01*
X293490Y914220D01*
X293956Y914492D01*
X294429Y914752D01*
X294909Y915001D01*
X295394Y915238D01*
X295885Y915463D01*
X296381Y915675D01*
X296882Y915876D01*
X297388Y916064D01*
X297899Y916240D01*
X298414Y916403D01*
X298932Y916553D01*
X299454Y916691D01*
X299980Y916815D01*
X300508Y916927D01*
X301039Y917026D01*
X301572Y917112D01*
X302107Y917185D01*
X302644Y917244D01*
X303182Y917290D01*
X303721Y917324D01*
X304260Y917343D01*
X304800Y917350D01*
X305340Y917343D01*
X305879Y917324D01*
X306418Y917290D01*
X306956Y917244D01*
X307493Y917185D01*
X308028Y917112D01*
X308561Y917026D01*
X309092Y916927D01*
X309620Y916815D01*
X310146Y916691D01*
X310668Y916553D01*
X311186Y916403D01*
X311701Y916240D01*
X312212Y916064D01*
X312718Y915876D01*
X313219Y915675D01*
X313715Y915463D01*
X314206Y915238D01*
X314691Y915001D01*
X315171Y914752D01*
X315644Y914492D01*
X316110Y914220D01*
X316570Y913937D01*
X317023Y913642D01*
X317468Y913337D01*
X317905Y913021D01*
X318335Y912694D01*
X318757Y912356D01*
X319170Y912009D01*
X319574Y911651D01*
X319970Y911283D01*
X320356Y910906D01*
X320733Y910520D01*
X321101Y910124D01*
X321459Y909720D01*
X321806Y909307D01*
X322144Y908885D01*
X322471Y908455D01*
X322787Y908018D01*
X323092Y907573D01*
X323387Y907120D01*
X323670Y906660D01*
X323942Y906194D01*
X324202Y905721D01*
X324451Y905241D01*
X324688Y904756D01*
X324913Y904265D01*
X325125Y903769D01*
X325326Y903268D01*
X325514Y902762D01*
X325690Y902251D01*
X325853Y901736D01*
X326003Y901218D01*
X326141Y900696D01*
X326265Y900170D01*
X326377Y899642D01*
X326476Y899111D01*
X326562Y898578D01*
X326635Y898043D01*
X326694Y897506D01*
X326740Y896968D01*
X326774Y896429D01*
X326793Y895890D01*
X326800Y895350D01*
X326793Y894810D01*
X326774Y894271D01*
X326740Y893732D01*
X326694Y893194D01*
X326635Y892657D01*
X326562Y892122D01*
X326476Y891589D01*
X326377Y891058D01*
X326265Y890530D01*
X326141Y890004D01*
X326003Y889482D01*
X325853Y888964D01*
X325690Y888449D01*
X325514Y887938D01*
X325326Y887432D01*
X325125Y886931D01*
X324913Y886435D01*
X324688Y885944D01*
X324451Y885459D01*
X324202Y884979D01*
X323942Y884506D01*
X323670Y884040D01*
X323387Y883580D01*
X323092Y883127D01*
X322787Y882682D01*
X322471Y882245D01*
X322144Y881815D01*
X321806Y881393D01*
X321459Y880980D01*
X321101Y880576D01*
X320733Y880180D01*
X320356Y879794D01*
X319970Y879417D01*
X319574Y879049D01*
X319170Y878691D01*
X318757Y878344D01*
X318335Y878006D01*
X317905Y877679D01*
X317468Y877363D01*
X317023Y877058D01*
X316570Y876763D01*
X316110Y876480D01*
X315644Y876208D01*
X315171Y875948D01*
X314691Y875699D01*
X314206Y875462D01*
X313715Y875237D01*
X313219Y875025D01*
X312718Y874824D01*
X312212Y874636D01*
X311701Y874460D01*
X311186Y874297D01*
X310668Y874147D01*
X310146Y874009D01*
X309620Y873885D01*
X309092Y873773D01*
X308561Y873674D01*
X308028Y873588D01*
X307493Y873515D01*
X306956Y873456D01*
X306418Y873410D01*
X305879Y873376D01*
X305340Y873357D01*
X304800Y873350D01*
X304260Y873357D01*
X303721Y873376D01*
X303182Y873410D01*
X302644Y873456D01*
X302107Y873515D01*
X301572Y873588D01*
X301039Y873674D01*
X300508Y873773D01*
X299980Y873885D01*
X299454Y874009D01*
X298932Y874147D01*
X298414Y874297D01*
X297899Y874460D01*
X297388Y874636D01*
X296882Y874824D01*
X296381Y875025D01*
X295885Y875237D01*
X295394Y875462D01*
X294909Y875699D01*
X294429Y875948D01*
X293956Y876208D01*
X293490Y876480D01*
X293030Y876763D01*
X292577Y877058D01*
X292132Y877363D01*
X291695Y877679D01*
X291265Y878006D01*
X290843Y878344D01*
X290430Y878691D01*
X290026Y879049D01*
X289630Y879417D01*
X289244Y879794D01*
X288867Y880180D01*
X288499Y880576D01*
X288141Y880980D01*
X287794Y881393D01*
X287456Y881815D01*
X287129Y882245D01*
X286813Y882682D01*
X286508Y883127D01*
X286213Y883580D01*
X285930Y884040D01*
X285658Y884506D01*
X285398Y884979D01*
X285149Y885459D01*
X284912Y885944D01*
X284687Y886435D01*
X284475Y886931D01*
X284274Y887432D01*
X284086Y887938D01*
X283910Y888449D01*
X283747Y888964D01*
X283597Y889482D01*
X283459Y890004D01*
X283335Y890530D01*
X283223Y891058D01*
X283124Y891589D01*
X283038Y892122D01*
X282965Y892657D01*
X282906Y893194D01*
X282860Y893732D01*
X282826Y894271D01*
X282807Y894810D01*
X282800Y895350D01*
X1044800Y323850D02*
X1044807Y324390D01*
X1044826Y324929D01*
X1044860Y325468D01*
X1044906Y326006D01*
X1044965Y326543D01*
X1045038Y327078D01*
X1045124Y327611D01*
X1045223Y328142D01*
X1045335Y328670D01*
X1045459Y329196D01*
X1045597Y329718D01*
X1045747Y330236D01*
X1045910Y330751D01*
X1046086Y331262D01*
X1046274Y331768D01*
X1046475Y332269D01*
X1046687Y332765D01*
X1046912Y333256D01*
X1047149Y333741D01*
X1047398Y334221D01*
X1047658Y334694D01*
X1047930Y335160D01*
X1048213Y335620D01*
X1048508Y336073D01*
X1048813Y336518D01*
X1049129Y336955D01*
X1049456Y337385D01*
X1049794Y337807D01*
X1050141Y338220D01*
X1050499Y338624D01*
X1050867Y339020D01*
X1051244Y339406D01*
X1051630Y339783D01*
X1052026Y340151D01*
X1052430Y340509D01*
X1052843Y340856D01*
X1053265Y341194D01*
X1053695Y341521D01*
X1054132Y341837D01*
X1054577Y342142D01*
X1055030Y342437D01*
X1055490Y342720D01*
X1055956Y342992D01*
X1056429Y343252D01*
X1056909Y343501D01*
X1057394Y343738D01*
X1057885Y343963D01*
X1058381Y344175D01*
X1058882Y344376D01*
X1059388Y344564D01*
X1059899Y344740D01*
X1060414Y344903D01*
X1060932Y345053D01*
X1061454Y345191D01*
X1061980Y345315D01*
X1062508Y345427D01*
X1063039Y345526D01*
X1063572Y345612D01*
X1064107Y345685D01*
X1064644Y345744D01*
X1065182Y345790D01*
X1065721Y345824D01*
X1066260Y345843D01*
X1066800Y345850D01*
X1067340Y345843D01*
X1067879Y345824D01*
X1068418Y345790D01*
X1068956Y345744D01*
X1069493Y345685D01*
X1070028Y345612D01*
X1070561Y345526D01*
X1071092Y345427D01*
X1071620Y345315D01*
X1072146Y345191D01*
X1072668Y345053D01*
X1073186Y344903D01*
X1073701Y344740D01*
X1074212Y344564D01*
X1074718Y344376D01*
X1075219Y344175D01*
X1075715Y343963D01*
X1076206Y343738D01*
X1076691Y343501D01*
X1077171Y343252D01*
X1077644Y342992D01*
X1078110Y342720D01*
X1078570Y342437D01*
X1079023Y342142D01*
X1079468Y341837D01*
X1079905Y341521D01*
X1080335Y341194D01*
X1080757Y340856D01*
X1081170Y340509D01*
X1081574Y340151D01*
X1081970Y339783D01*
X1082356Y339406D01*
X1082733Y339020D01*
X1083101Y338624D01*
X1083459Y338220D01*
X1083806Y337807D01*
X1084144Y337385D01*
X1084471Y336955D01*
X1084787Y336518D01*
X1085092Y336073D01*
X1085387Y335620D01*
X1085670Y335160D01*
X1085942Y334694D01*
X1086202Y334221D01*
X1086451Y333741D01*
X1086688Y333256D01*
X1086913Y332765D01*
X1087125Y332269D01*
X1087326Y331768D01*
X1087514Y331262D01*
X1087690Y330751D01*
X1087853Y330236D01*
X1088003Y329718D01*
X1088141Y329196D01*
X1088265Y328670D01*
X1088377Y328142D01*
X1088476Y327611D01*
X1088562Y327078D01*
X1088635Y326543D01*
X1088694Y326006D01*
X1088740Y325468D01*
X1088774Y324929D01*
X1088793Y324390D01*
X1088800Y323850D01*
X1088793Y323310D01*
X1088774Y322771D01*
X1088740Y322232D01*
X1088694Y321694D01*
X1088635Y321157D01*
X1088562Y320622D01*
X1088476Y320089D01*
X1088377Y319558D01*
X1088265Y319030D01*
X1088141Y318504D01*
X1088003Y317982D01*
X1087853Y317464D01*
X1087690Y316949D01*
X1087514Y316438D01*
X1087326Y315932D01*
X1087125Y315431D01*
X1086913Y314935D01*
X1086688Y314444D01*
X1086451Y313959D01*
X1086202Y313479D01*
X1085942Y313006D01*
X1085670Y312540D01*
X1085387Y312080D01*
X1085092Y311627D01*
X1084787Y311182D01*
X1084471Y310745D01*
X1084144Y310315D01*
X1083806Y309893D01*
X1083459Y309480D01*
X1083101Y309076D01*
X1082733Y308680D01*
X1082356Y308294D01*
X1081970Y307917D01*
X1081574Y307549D01*
X1081170Y307191D01*
X1080757Y306844D01*
X1080335Y306506D01*
X1079905Y306179D01*
X1079468Y305863D01*
X1079023Y305558D01*
X1078570Y305263D01*
X1078110Y304980D01*
X1077644Y304708D01*
X1077171Y304448D01*
X1076691Y304199D01*
X1076206Y303962D01*
X1075715Y303737D01*
X1075219Y303525D01*
X1074718Y303324D01*
X1074212Y303136D01*
X1073701Y302960D01*
X1073186Y302797D01*
X1072668Y302647D01*
X1072146Y302509D01*
X1071620Y302385D01*
X1071092Y302273D01*
X1070561Y302174D01*
X1070028Y302088D01*
X1069493Y302015D01*
X1068956Y301956D01*
X1068418Y301910D01*
X1067879Y301876D01*
X1067340Y301857D01*
X1066800Y301850D01*
X1066260Y301857D01*
X1065721Y301876D01*
X1065182Y301910D01*
X1064644Y301956D01*
X1064107Y302015D01*
X1063572Y302088D01*
X1063039Y302174D01*
X1062508Y302273D01*
X1061980Y302385D01*
X1061454Y302509D01*
X1060932Y302647D01*
X1060414Y302797D01*
X1059899Y302960D01*
X1059388Y303136D01*
X1058882Y303324D01*
X1058381Y303525D01*
X1057885Y303737D01*
X1057394Y303962D01*
X1056909Y304199D01*
X1056429Y304448D01*
X1055956Y304708D01*
X1055490Y304980D01*
X1055030Y305263D01*
X1054577Y305558D01*
X1054132Y305863D01*
X1053695Y306179D01*
X1053265Y306506D01*
X1052843Y306844D01*
X1052430Y307191D01*
X1052026Y307549D01*
X1051630Y307917D01*
X1051244Y308294D01*
X1050867Y308680D01*
X1050499Y309076D01*
X1050141Y309480D01*
X1049794Y309893D01*
X1049456Y310315D01*
X1049129Y310745D01*
X1048813Y311182D01*
X1048508Y311627D01*
X1048213Y312080D01*
X1047930Y312540D01*
X1047658Y313006D01*
X1047398Y313479D01*
X1047149Y313959D01*
X1046912Y314444D01*
X1046687Y314935D01*
X1046475Y315431D01*
X1046274Y315932D01*
X1046086Y316438D01*
X1045910Y316949D01*
X1045747Y317464D01*
X1045597Y317982D01*
X1045459Y318504D01*
X1045335Y319030D01*
X1045223Y319558D01*
X1045124Y320089D01*
X1045038Y320622D01*
X1044965Y321157D01*
X1044906Y321694D01*
X1044860Y322232D01*
X1044826Y322771D01*
X1044807Y323310D01*
X1044800Y323850D01*
X1044800Y895350D02*
X1044807Y895890D01*
X1044826Y896429D01*
X1044860Y896968D01*
X1044906Y897506D01*
X1044965Y898043D01*
X1045038Y898578D01*
X1045124Y899111D01*
X1045223Y899642D01*
X1045335Y900170D01*
X1045459Y900696D01*
X1045597Y901218D01*
X1045747Y901736D01*
X1045910Y902251D01*
X1046086Y902762D01*
X1046274Y903268D01*
X1046475Y903769D01*
X1046687Y904265D01*
X1046912Y904756D01*
X1047149Y905241D01*
X1047398Y905721D01*
X1047658Y906194D01*
X1047930Y906660D01*
X1048213Y907120D01*
X1048508Y907573D01*
X1048813Y908018D01*
X1049129Y908455D01*
X1049456Y908885D01*
X1049794Y909307D01*
X1050141Y909720D01*
X1050499Y910124D01*
X1050867Y910520D01*
X1051244Y910906D01*
X1051630Y911283D01*
X1052026Y911651D01*
X1052430Y912009D01*
X1052843Y912356D01*
X1053265Y912694D01*
X1053695Y913021D01*
X1054132Y913337D01*
X1054577Y913642D01*
X1055030Y913937D01*
X1055490Y914220D01*
X1055956Y914492D01*
X1056429Y914752D01*
X1056909Y915001D01*
X1057394Y915238D01*
X1057885Y915463D01*
X1058381Y915675D01*
X1058882Y915876D01*
X1059388Y916064D01*
X1059899Y916240D01*
X1060414Y916403D01*
X1060932Y916553D01*
X1061454Y916691D01*
X1061980Y916815D01*
X1062508Y916927D01*
X1063039Y917026D01*
X1063572Y917112D01*
X1064107Y917185D01*
X1064644Y917244D01*
X1065182Y917290D01*
X1065721Y917324D01*
X1066260Y917343D01*
X1066800Y917350D01*
X1067340Y917343D01*
X1067879Y917324D01*
X1068418Y917290D01*
X1068956Y917244D01*
X1069493Y917185D01*
X1070028Y917112D01*
X1070561Y917026D01*
X1071092Y916927D01*
X1071620Y916815D01*
X1072146Y916691D01*
X1072668Y916553D01*
X1073186Y916403D01*
X1073701Y916240D01*
X1074212Y916064D01*
X1074718Y915876D01*
X1075219Y915675D01*
X1075715Y915463D01*
X1076206Y915238D01*
X1076691Y915001D01*
X1077171Y914752D01*
X1077644Y914492D01*
X1078110Y914220D01*
X1078570Y913937D01*
X1079023Y913642D01*
X1079468Y913337D01*
X1079905Y913021D01*
X1080335Y912694D01*
X1080757Y912356D01*
X1081170Y912009D01*
X1081574Y911651D01*
X1081970Y911283D01*
X1082356Y910906D01*
X1082733Y910520D01*
X1083101Y910124D01*
X1083459Y909720D01*
X1083806Y909307D01*
X1084144Y908885D01*
X1084471Y908455D01*
X1084787Y908018D01*
X1085092Y907573D01*
X1085387Y907120D01*
X1085670Y906660D01*
X1085942Y906194D01*
X1086202Y905721D01*
X1086451Y905241D01*
X1086688Y904756D01*
X1086913Y904265D01*
X1087125Y903769D01*
X1087326Y903268D01*
X1087514Y902762D01*
X1087690Y902251D01*
X1087853Y901736D01*
X1088003Y901218D01*
X1088141Y900696D01*
X1088265Y900170D01*
X1088377Y899642D01*
X1088476Y899111D01*
X1088562Y898578D01*
X1088635Y898043D01*
X1088694Y897506D01*
X1088740Y896968D01*
X1088774Y896429D01*
X1088793Y895890D01*
X1088800Y895350D01*
X1088793Y894810D01*
X1088774Y894271D01*
X1088740Y893732D01*
X1088694Y893194D01*
X1088635Y892657D01*
X1088562Y892122D01*
X1088476Y891589D01*
X1088377Y891058D01*
X1088265Y890530D01*
X1088141Y890004D01*
X1088003Y889482D01*
X1087853Y888964D01*
X1087690Y888449D01*
X1087514Y887938D01*
X1087326Y887432D01*
X1087125Y886931D01*
X1086913Y886435D01*
X1086688Y885944D01*
X1086451Y885459D01*
X1086202Y884979D01*
X1085942Y884506D01*
X1085670Y884040D01*
X1085387Y883580D01*
X1085092Y883127D01*
X1084787Y882682D01*
X1084471Y882245D01*
X1084144Y881815D01*
X1083806Y881393D01*
X1083459Y880980D01*
X1083101Y880576D01*
X1082733Y880180D01*
X1082356Y879794D01*
X1081970Y879417D01*
X1081574Y879049D01*
X1081170Y878691D01*
X1080757Y878344D01*
X1080335Y878006D01*
X1079905Y877679D01*
X1079468Y877363D01*
X1079023Y877058D01*
X1078570Y876763D01*
X1078110Y876480D01*
X1077644Y876208D01*
X1077171Y875948D01*
X1076691Y875699D01*
X1076206Y875462D01*
X1075715Y875237D01*
X1075219Y875025D01*
X1074718Y874824D01*
X1074212Y874636D01*
X1073701Y874460D01*
X1073186Y874297D01*
X1072668Y874147D01*
X1072146Y874009D01*
X1071620Y873885D01*
X1071092Y873773D01*
X1070561Y873674D01*
X1070028Y873588D01*
X1069493Y873515D01*
X1068956Y873456D01*
X1068418Y873410D01*
X1067879Y873376D01*
X1067340Y873357D01*
X1066800Y873350D01*
X1066260Y873357D01*
X1065721Y873376D01*
X1065182Y873410D01*
X1064644Y873456D01*
X1064107Y873515D01*
X1063572Y873588D01*
X1063039Y873674D01*
X1062508Y873773D01*
X1061980Y873885D01*
X1061454Y874009D01*
X1060932Y874147D01*
X1060414Y874297D01*
X1059899Y874460D01*
X1059388Y874636D01*
X1058882Y874824D01*
X1058381Y875025D01*
X1057885Y875237D01*
X1057394Y875462D01*
X1056909Y875699D01*
X1056429Y875948D01*
X1055956Y876208D01*
X1055490Y876480D01*
X1055030Y876763D01*
X1054577Y877058D01*
X1054132Y877363D01*
X1053695Y877679D01*
X1053265Y878006D01*
X1052843Y878344D01*
X1052430Y878691D01*
X1052026Y879049D01*
X1051630Y879417D01*
X1051244Y879794D01*
X1050867Y880180D01*
X1050499Y880576D01*
X1050141Y880980D01*
X1049794Y881393D01*
X1049456Y881815D01*
X1049129Y882245D01*
X1048813Y882682D01*
X1048508Y883127D01*
X1048213Y883580D01*
X1047930Y884040D01*
X1047658Y884506D01*
X1047398Y884979D01*
X1047149Y885459D01*
X1046912Y885944D01*
X1046687Y886435D01*
X1046475Y886931D01*
X1046274Y887432D01*
X1046086Y887938D01*
X1045910Y888449D01*
X1045747Y888964D01*
X1045597Y889482D01*
X1045459Y890004D01*
X1045335Y890530D01*
X1045223Y891058D01*
X1045124Y891589D01*
X1045038Y892122D01*
X1044965Y892657D01*
X1044906Y893194D01*
X1044860Y893732D01*
X1044826Y894271D01*
X1044807Y894810D01*
X1044800Y895350D01*
D16*
X304800Y297180D02*
X304186Y297187D01*
X303573Y297210D01*
X302960Y297247D01*
X302349Y297299D01*
X301738Y297365D01*
X301130Y297447D01*
X300524Y297543D01*
X299920Y297653D01*
X299319Y297778D01*
X298721Y297918D01*
X298127Y298072D01*
X297537Y298241D01*
X296951Y298423D01*
X296370Y298620D01*
X295793Y298831D01*
X295222Y299055D01*
X294656Y299293D01*
X294096Y299545D01*
X293543Y299811D01*
X292996Y300089D01*
X292456Y300381D01*
X291923Y300686D01*
X291398Y301004D01*
X290880Y301334D01*
X290371Y301676D01*
X289870Y302031D01*
X289378Y302398D01*
X288895Y302776D01*
X288421Y303166D01*
X287957Y303568D01*
X287502Y303980D01*
X287058Y304404D01*
X286624Y304838D01*
X286200Y305282D01*
X285788Y305737D01*
X285386Y306201D01*
X284996Y306675D01*
X284618Y307158D01*
X284251Y307650D01*
X283896Y308151D01*
X283554Y308660D01*
X283224Y309178D01*
X282906Y309703D01*
X282601Y310236D01*
X282309Y310776D01*
X282031Y311323D01*
X281765Y311876D01*
X281513Y312436D01*
X281275Y313002D01*
X281051Y313573D01*
X280840Y314150D01*
X280643Y314731D01*
X280461Y315317D01*
X280292Y315907D01*
X280138Y316501D01*
X279998Y317099D01*
X279873Y317700D01*
X279763Y318304D01*
X279667Y318910D01*
X279585Y319518D01*
X279519Y320129D01*
X279467Y320740D01*
X279430Y321353D01*
X279407Y321966D01*
X279400Y322580D01*
X279400Y896620D01*
X279407Y897234D01*
X279430Y897847D01*
X279467Y898460D01*
X279519Y899071D01*
X279585Y899682D01*
X279667Y900290D01*
X279763Y900896D01*
X279873Y901500D01*
X279998Y902101D01*
X280138Y902699D01*
X280292Y903293D01*
X280461Y903883D01*
X280643Y904469D01*
X280840Y905050D01*
X281051Y905627D01*
X281275Y906198D01*
X281513Y906764D01*
X281765Y907324D01*
X282031Y907877D01*
X282309Y908424D01*
X282601Y908964D01*
X282906Y909497D01*
X283224Y910022D01*
X283554Y910540D01*
X283896Y911049D01*
X284251Y911550D01*
X284618Y912042D01*
X284996Y912525D01*
X285386Y912999D01*
X285788Y913463D01*
X286200Y913918D01*
X286624Y914362D01*
X287058Y914796D01*
X287502Y915220D01*
X287957Y915632D01*
X288421Y916034D01*
X288895Y916424D01*
X289378Y916802D01*
X289870Y917169D01*
X290371Y917524D01*
X290880Y917866D01*
X291398Y918196D01*
X291923Y918514D01*
X292456Y918819D01*
X292996Y919111D01*
X293543Y919389D01*
X294096Y919655D01*
X294656Y919907D01*
X295222Y920145D01*
X295793Y920369D01*
X296370Y920580D01*
X296951Y920777D01*
X297537Y920959D01*
X298127Y921128D01*
X298721Y921282D01*
X299319Y921422D01*
X299920Y921547D01*
X300524Y921657D01*
X301130Y921753D01*
X301738Y921835D01*
X302349Y921901D01*
X302960Y921953D01*
X303573Y921990D01*
X304186Y922013D01*
X304800Y922020D01*
X305414Y922013D01*
X306027Y921990D01*
X306640Y921953D01*
X307251Y921901D01*
X307862Y921835D01*
X308470Y921753D01*
X309076Y921657D01*
X309680Y921547D01*
X310281Y921422D01*
X310879Y921282D01*
X311473Y921128D01*
X312063Y920959D01*
X312649Y920777D01*
X313230Y920580D01*
X313807Y920369D01*
X314378Y920145D01*
X314944Y919907D01*
X315504Y919655D01*
X316057Y919389D01*
X316604Y919111D01*
X317144Y918819D01*
X317677Y918514D01*
X318202Y918196D01*
X318720Y917866D01*
X319229Y917524D01*
X319730Y917169D01*
X320222Y916802D01*
X320705Y916424D01*
X321179Y916034D01*
X321643Y915632D01*
X322098Y915220D01*
X322542Y914796D01*
X322976Y914362D01*
X323400Y913918D01*
X323812Y913463D01*
X324214Y912999D01*
X324604Y912525D01*
X324982Y912042D01*
X325349Y911550D01*
X325704Y911049D01*
X326046Y910540D01*
X326376Y910022D01*
X326694Y909497D01*
X326999Y908964D01*
X327291Y908424D01*
X327569Y907877D01*
X327835Y907324D01*
X328087Y906764D01*
X328325Y906198D01*
X328549Y905627D01*
X328760Y905050D01*
X328957Y904469D01*
X329139Y903883D01*
X329308Y903293D01*
X329462Y902699D01*
X329602Y902101D01*
X329727Y901500D01*
X329837Y900896D01*
X329933Y900290D01*
X330015Y899682D01*
X330081Y899071D01*
X330133Y898460D01*
X330170Y897847D01*
X330193Y897234D01*
X330200Y896620D01*
X330200Y863600D01*
X1041400Y863600D01*
X1041400Y896620D01*
X1041407Y897234D01*
X1041430Y897847D01*
X1041467Y898460D01*
X1041519Y899071D01*
X1041585Y899682D01*
X1041667Y900290D01*
X1041763Y900896D01*
X1041873Y901500D01*
X1041998Y902101D01*
X1042138Y902699D01*
X1042292Y903293D01*
X1042461Y903883D01*
X1042643Y904469D01*
X1042840Y905050D01*
X1043051Y905627D01*
X1043275Y906198D01*
X1043513Y906764D01*
X1043765Y907324D01*
X1044031Y907877D01*
X1044309Y908424D01*
X1044601Y908964D01*
X1044906Y909497D01*
X1045224Y910022D01*
X1045554Y910540D01*
X1045896Y911049D01*
X1046251Y911550D01*
X1046618Y912042D01*
X1046996Y912525D01*
X1047386Y912999D01*
X1047788Y913463D01*
X1048200Y913918D01*
X1048624Y914362D01*
X1049058Y914796D01*
X1049502Y915220D01*
X1049957Y915632D01*
X1050421Y916034D01*
X1050895Y916424D01*
X1051378Y916802D01*
X1051870Y917169D01*
X1052371Y917524D01*
X1052880Y917866D01*
X1053398Y918196D01*
X1053923Y918514D01*
X1054456Y918819D01*
X1054996Y919111D01*
X1055543Y919389D01*
X1056096Y919655D01*
X1056656Y919907D01*
X1057222Y920145D01*
X1057793Y920369D01*
X1058370Y920580D01*
X1058951Y920777D01*
X1059537Y920959D01*
X1060127Y921128D01*
X1060721Y921282D01*
X1061319Y921422D01*
X1061920Y921547D01*
X1062524Y921657D01*
X1063130Y921753D01*
X1063738Y921835D01*
X1064349Y921901D01*
X1064960Y921953D01*
X1065573Y921990D01*
X1066186Y922013D01*
X1066800Y922020D01*
X1067414Y922013D01*
X1068027Y921990D01*
X1068640Y921953D01*
X1069251Y921901D01*
X1069862Y921835D01*
X1070470Y921753D01*
X1071076Y921657D01*
X1071680Y921547D01*
X1072281Y921422D01*
X1072879Y921282D01*
X1073473Y921128D01*
X1074063Y920959D01*
X1074649Y920777D01*
X1075230Y920580D01*
X1075807Y920369D01*
X1076378Y920145D01*
X1076944Y919907D01*
X1077504Y919655D01*
X1078057Y919389D01*
X1078604Y919111D01*
X1079144Y918819D01*
X1079677Y918514D01*
X1080202Y918196D01*
X1080720Y917866D01*
X1081229Y917524D01*
X1081730Y917169D01*
X1082222Y916802D01*
X1082705Y916424D01*
X1083179Y916034D01*
X1083643Y915632D01*
X1084098Y915220D01*
X1084542Y914796D01*
X1084976Y914362D01*
X1085400Y913918D01*
X1085812Y913463D01*
X1086214Y912999D01*
X1086604Y912525D01*
X1086982Y912042D01*
X1087349Y911550D01*
X1087704Y911049D01*
X1088046Y910540D01*
X1088376Y910022D01*
X1088694Y909497D01*
X1088999Y908964D01*
X1089291Y908424D01*
X1089569Y907877D01*
X1089835Y907324D01*
X1090087Y906764D01*
X1090325Y906198D01*
X1090549Y905627D01*
X1090760Y905050D01*
X1090957Y904469D01*
X1091139Y903883D01*
X1091308Y903293D01*
X1091462Y902699D01*
X1091602Y902101D01*
X1091727Y901500D01*
X1091837Y900896D01*
X1091933Y900290D01*
X1092015Y899682D01*
X1092081Y899071D01*
X1092133Y898460D01*
X1092170Y897847D01*
X1092193Y897234D01*
X1092200Y896620D01*
X1092200Y322580D01*
X1092193Y321966D01*
X1092170Y321353D01*
X1092133Y320740D01*
X1092081Y320129D01*
X1092015Y319518D01*
X1091933Y318910D01*
X1091837Y318304D01*
X1091727Y317700D01*
X1091602Y317099D01*
X1091462Y316501D01*
X1091308Y315907D01*
X1091139Y315317D01*
X1090957Y314731D01*
X1090760Y314150D01*
X1090549Y313573D01*
X1090325Y313002D01*
X1090087Y312436D01*
X1089835Y311876D01*
X1089569Y311323D01*
X1089291Y310776D01*
X1088999Y310236D01*
X1088694Y309703D01*
X1088376Y309178D01*
X1088046Y308660D01*
X1087704Y308151D01*
X1087349Y307650D01*
X1086982Y307158D01*
X1086604Y306675D01*
X1086214Y306201D01*
X1085812Y305737D01*
X1085400Y305282D01*
X1084976Y304838D01*
X1084542Y304404D01*
X1084098Y303980D01*
X1083643Y303568D01*
X1083179Y303166D01*
X1082705Y302776D01*
X1082222Y302398D01*
X1081730Y302031D01*
X1081229Y301676D01*
X1080720Y301334D01*
X1080202Y301004D01*
X1079677Y300686D01*
X1079144Y300381D01*
X1078604Y300089D01*
X1078057Y299811D01*
X1077504Y299545D01*
X1076944Y299293D01*
X1076378Y299055D01*
X1075807Y298831D01*
X1075230Y298620D01*
X1074649Y298423D01*
X1074063Y298241D01*
X1073473Y298072D01*
X1072879Y297918D01*
X1072281Y297778D01*
X1071680Y297653D01*
X1071076Y297543D01*
X1070470Y297447D01*
X1069862Y297365D01*
X1069251Y297299D01*
X1068640Y297247D01*
X1068027Y297210D01*
X1067414Y297187D01*
X1066800Y297180D01*
X1066186Y297187D01*
X1065573Y297210D01*
X1064960Y297247D01*
X1064349Y297299D01*
X1063738Y297365D01*
X1063130Y297447D01*
X1062524Y297543D01*
X1061920Y297653D01*
X1061319Y297778D01*
X1060721Y297918D01*
X1060127Y298072D01*
X1059537Y298241D01*
X1058951Y298423D01*
X1058370Y298620D01*
X1057793Y298831D01*
X1057222Y299055D01*
X1056656Y299293D01*
X1056096Y299545D01*
X1055543Y299811D01*
X1054996Y300089D01*
X1054456Y300381D01*
X1053923Y300686D01*
X1053398Y301004D01*
X1052880Y301334D01*
X1052371Y301676D01*
X1051870Y302031D01*
X1051378Y302398D01*
X1050895Y302776D01*
X1050421Y303166D01*
X1049957Y303568D01*
X1049502Y303980D01*
X1049058Y304404D01*
X1048624Y304838D01*
X1048200Y305282D01*
X1047788Y305737D01*
X1047386Y306201D01*
X1046996Y306675D01*
X1046618Y307158D01*
X1046251Y307650D01*
X1045896Y308151D01*
X1045554Y308660D01*
X1045224Y309178D01*
X1044906Y309703D01*
X1044601Y310236D01*
X1044309Y310776D01*
X1044031Y311323D01*
X1043765Y311876D01*
X1043513Y312436D01*
X1043275Y313002D01*
X1043051Y313573D01*
X1042840Y314150D01*
X1042643Y314731D01*
X1042461Y315317D01*
X1042292Y315907D01*
X1042138Y316501D01*
X1041998Y317099D01*
X1041873Y317700D01*
X1041763Y318304D01*
X1041667Y318910D01*
X1041585Y319518D01*
X1041519Y320129D01*
X1041467Y320740D01*
X1041430Y321353D01*
X1041407Y321966D01*
X1041400Y322580D01*
X1041400Y355600D01*
X330200Y355600D01*
X330200Y322580D01*
X330193Y321966D01*
X330170Y321353D01*
X330133Y320740D01*
X330081Y320129D01*
X330015Y319518D01*
X329933Y318910D01*
X329837Y318304D01*
X329727Y317700D01*
X329602Y317099D01*
X329462Y316501D01*
X329308Y315907D01*
X329139Y315317D01*
X328957Y314731D01*
X328760Y314150D01*
X328549Y313573D01*
X328325Y313002D01*
X328087Y312436D01*
X327835Y311876D01*
X327569Y311323D01*
X327291Y310776D01*
X326999Y310236D01*
X326694Y309703D01*
X326376Y309178D01*
X326046Y308660D01*
X325704Y308151D01*
X325349Y307650D01*
X324982Y307158D01*
X324604Y306675D01*
X324214Y306201D01*
X323812Y305737D01*
X323400Y305282D01*
X322976Y304838D01*
X322542Y304404D01*
X322098Y303980D01*
X321643Y303568D01*
X321179Y303166D01*
X320705Y302776D01*
X320222Y302398D01*
X319730Y302031D01*
X319229Y301676D01*
X318720Y301334D01*
X318202Y301004D01*
X317677Y300686D01*
X317144Y300381D01*
X316604Y300089D01*
X316057Y299811D01*
X315504Y299545D01*
X314944Y299293D01*
X314378Y299055D01*
X313807Y298831D01*
X313230Y298620D01*
X312649Y298423D01*
X312063Y298241D01*
X311473Y298072D01*
X310879Y297918D01*
X310281Y297778D01*
X309680Y297653D01*
X309076Y297543D01*
X308470Y297447D01*
X307862Y297365D01*
X307251Y297299D01*
X306640Y297247D01*
X306027Y297210D01*
X305414Y297187D01*
X304800Y297180D01*
D17*
X1111292Y407289D02*
X1125601Y407289D01*
X1111292Y407289D02*
X1111146Y407291D01*
X1110999Y407297D01*
X1110853Y407307D01*
X1110707Y407320D01*
X1110562Y407338D01*
X1110417Y407359D01*
X1110272Y407384D01*
X1110129Y407413D01*
X1109986Y407446D01*
X1109844Y407483D01*
X1109703Y407523D01*
X1109564Y407567D01*
X1109425Y407615D01*
X1109288Y407667D01*
X1109152Y407722D01*
X1109018Y407781D01*
X1108885Y407843D01*
X1108755Y407909D01*
X1108626Y407978D01*
X1108498Y408051D01*
X1108373Y408127D01*
X1108250Y408206D01*
X1108129Y408289D01*
X1108010Y408375D01*
X1107894Y408464D01*
X1107780Y408556D01*
X1107668Y408651D01*
X1107559Y408749D01*
X1107453Y408849D01*
X1107349Y408953D01*
X1107249Y409059D01*
X1107151Y409168D01*
X1107056Y409280D01*
X1106964Y409394D01*
X1106875Y409510D01*
X1106789Y409629D01*
X1106706Y409750D01*
X1106627Y409873D01*
X1106551Y409998D01*
X1106478Y410126D01*
X1106409Y410255D01*
X1106343Y410385D01*
X1106281Y410518D01*
X1106222Y410652D01*
X1106167Y410788D01*
X1106115Y410925D01*
X1106067Y411064D01*
X1106023Y411203D01*
X1105983Y411344D01*
X1105946Y411486D01*
X1105913Y411629D01*
X1105884Y411772D01*
X1105859Y411917D01*
X1105838Y412062D01*
X1105820Y412207D01*
X1105807Y412353D01*
X1105797Y412499D01*
X1105791Y412646D01*
X1105789Y412792D01*
X1105791Y412938D01*
X1105797Y413085D01*
X1105807Y413231D01*
X1105820Y413377D01*
X1105838Y413522D01*
X1105859Y413667D01*
X1105884Y413812D01*
X1105913Y413955D01*
X1105946Y414098D01*
X1105983Y414240D01*
X1106023Y414381D01*
X1106067Y414520D01*
X1106115Y414659D01*
X1106167Y414796D01*
X1106222Y414932D01*
X1106281Y415066D01*
X1106343Y415199D01*
X1106409Y415329D01*
X1106478Y415458D01*
X1106551Y415586D01*
X1106627Y415711D01*
X1106706Y415834D01*
X1106789Y415955D01*
X1106875Y416074D01*
X1106964Y416190D01*
X1107056Y416304D01*
X1107151Y416416D01*
X1107249Y416525D01*
X1107349Y416631D01*
X1107453Y416735D01*
X1107559Y416835D01*
X1107668Y416933D01*
X1107780Y417028D01*
X1107894Y417120D01*
X1108010Y417209D01*
X1108129Y417295D01*
X1108250Y417378D01*
X1108373Y417457D01*
X1108498Y417533D01*
X1108626Y417606D01*
X1108755Y417675D01*
X1108885Y417741D01*
X1109018Y417803D01*
X1109152Y417862D01*
X1109288Y417917D01*
X1109425Y417969D01*
X1109564Y418017D01*
X1109703Y418061D01*
X1109844Y418101D01*
X1109986Y418138D01*
X1110129Y418171D01*
X1110272Y418200D01*
X1110417Y418225D01*
X1110562Y418246D01*
X1110707Y418264D01*
X1110853Y418277D01*
X1110999Y418287D01*
X1111146Y418293D01*
X1111292Y418295D01*
X1111292Y418296D02*
X1125601Y418296D01*
X1125601Y430544D02*
X1105789Y430544D01*
X1115695Y430544D02*
X1117346Y427792D01*
X1117406Y427696D01*
X1117469Y427602D01*
X1117536Y427509D01*
X1117606Y427420D01*
X1117679Y427333D01*
X1117754Y427248D01*
X1117833Y427166D01*
X1117915Y427087D01*
X1117999Y427010D01*
X1118086Y426937D01*
X1118175Y426867D01*
X1118267Y426799D01*
X1118361Y426735D01*
X1118457Y426675D01*
X1118555Y426617D01*
X1118655Y426563D01*
X1118757Y426513D01*
X1118860Y426466D01*
X1118966Y426423D01*
X1119072Y426383D01*
X1119180Y426347D01*
X1119289Y426315D01*
X1119399Y426286D01*
X1119510Y426262D01*
X1119622Y426241D01*
X1119734Y426224D01*
X1119847Y426211D01*
X1119961Y426202D01*
X1120074Y426197D01*
X1120188Y426196D01*
X1120302Y426199D01*
X1120415Y426206D01*
X1120528Y426216D01*
X1120641Y426231D01*
X1120753Y426249D01*
X1120865Y426271D01*
X1120975Y426297D01*
X1121085Y426327D01*
X1121194Y426361D01*
X1121301Y426398D01*
X1121407Y426440D01*
X1121511Y426484D01*
X1121614Y426533D01*
X1121715Y426585D01*
X1121815Y426640D01*
X1121912Y426699D01*
X1122007Y426761D01*
X1122100Y426826D01*
X1122191Y426894D01*
X1122279Y426966D01*
X1122365Y427041D01*
X1122448Y427118D01*
X1122529Y427199D01*
X1122606Y427282D01*
X1122681Y427367D01*
X1122753Y427456D01*
X1122821Y427546D01*
X1122887Y427639D01*
X1122949Y427734D01*
X1123008Y427832D01*
X1123063Y427931D01*
X1123115Y428032D01*
X1123164Y428135D01*
X1123208Y428239D01*
X1123250Y428345D01*
X1123287Y428453D01*
X1123321Y428561D01*
X1123351Y428671D01*
X1123377Y428782D01*
X1123399Y428893D01*
X1123400Y428893D02*
X1123435Y429099D01*
X1123465Y429307D01*
X1123491Y429515D01*
X1123511Y429723D01*
X1123526Y429933D01*
X1123536Y430142D01*
X1123541Y430351D01*
X1123541Y430561D01*
X1123536Y430771D01*
X1123526Y430980D01*
X1123511Y431189D01*
X1123491Y431398D01*
X1123466Y431606D01*
X1123436Y431813D01*
X1123401Y432020D01*
X1123361Y432226D01*
X1123316Y432430D01*
X1123267Y432634D01*
X1123212Y432836D01*
X1123152Y433037D01*
X1123088Y433237D01*
X1123019Y433435D01*
X1122945Y433631D01*
X1122867Y433825D01*
X1122783Y434018D01*
X1122696Y434208D01*
X1122603Y434396D01*
X1122506Y434582D01*
X1122405Y434765D01*
X1122299Y434946D01*
X1115695Y430544D02*
X1114044Y433296D01*
X1113984Y433392D01*
X1113921Y433486D01*
X1113854Y433579D01*
X1113784Y433668D01*
X1113711Y433755D01*
X1113636Y433840D01*
X1113557Y433922D01*
X1113475Y434001D01*
X1113391Y434078D01*
X1113304Y434151D01*
X1113215Y434221D01*
X1113123Y434289D01*
X1113029Y434353D01*
X1112933Y434413D01*
X1112835Y434471D01*
X1112735Y434525D01*
X1112633Y434575D01*
X1112530Y434622D01*
X1112424Y434665D01*
X1112318Y434705D01*
X1112210Y434741D01*
X1112101Y434773D01*
X1111991Y434802D01*
X1111880Y434826D01*
X1111768Y434847D01*
X1111656Y434864D01*
X1111543Y434877D01*
X1111429Y434886D01*
X1111316Y434891D01*
X1111202Y434892D01*
X1111088Y434889D01*
X1110975Y434882D01*
X1110862Y434872D01*
X1110749Y434857D01*
X1110637Y434839D01*
X1110525Y434817D01*
X1110415Y434791D01*
X1110305Y434761D01*
X1110196Y434727D01*
X1110089Y434690D01*
X1109983Y434648D01*
X1109879Y434604D01*
X1109776Y434555D01*
X1109675Y434503D01*
X1109575Y434448D01*
X1109478Y434389D01*
X1109383Y434327D01*
X1109290Y434262D01*
X1109199Y434194D01*
X1109111Y434122D01*
X1109025Y434047D01*
X1108942Y433970D01*
X1108861Y433889D01*
X1108784Y433806D01*
X1108709Y433721D01*
X1108637Y433632D01*
X1108569Y433542D01*
X1108503Y433449D01*
X1108441Y433354D01*
X1108382Y433256D01*
X1108327Y433157D01*
X1108275Y433056D01*
X1108226Y432953D01*
X1108182Y432849D01*
X1108140Y432743D01*
X1108103Y432635D01*
X1108069Y432527D01*
X1108039Y432417D01*
X1108013Y432306D01*
X1107991Y432195D01*
X1107990Y432195D02*
X1107955Y431989D01*
X1107925Y431781D01*
X1107899Y431573D01*
X1107879Y431365D01*
X1107864Y431155D01*
X1107854Y430946D01*
X1107849Y430737D01*
X1107849Y430527D01*
X1107854Y430317D01*
X1107864Y430108D01*
X1107879Y429899D01*
X1107899Y429690D01*
X1107924Y429482D01*
X1107954Y429275D01*
X1107989Y429068D01*
X1108029Y428862D01*
X1108074Y428658D01*
X1108123Y428454D01*
X1108178Y428252D01*
X1108238Y428051D01*
X1108302Y427851D01*
X1108371Y427653D01*
X1108445Y427457D01*
X1108524Y427263D01*
X1108607Y427070D01*
X1108695Y426880D01*
X1108787Y426692D01*
X1108884Y426506D01*
X1108985Y426323D01*
X1109091Y426141D01*
X1121198Y442180D02*
X1125601Y447684D01*
X1105789Y447684D01*
X1105789Y453187D02*
X1105789Y442180D01*
M02*
