G04 EAGLE Gerber RS-274X export*
G75*
%MOMM*%
%FSLAX34Y34*%
%LPD*%
%INSoldermask Top*%
%IPPOS*%
%AMOC8*
5,1,8,0,0,1.08239X$1,22.5*%
G01*
%ADD10C,1.552400*%
%ADD11C,2.652400*%
%ADD12C,2.112400*%
%ADD13R,1.440400X1.440400*%
%ADD14C,1.440400*%
%ADD15C,2.452400*%
%ADD16R,1.152400X1.252400*%
%ADD17R,0.952400X0.952400*%
%ADD18C,0.609600*%
%ADD19C,1.168400*%
%ADD20R,1.452400X1.652400*%
%ADD21R,1.676400X1.676400*%
%ADD22P,1.814519X8X292.500000*%
%ADD23R,1.828800X1.828800*%
%ADD24C,1.828800*%
%ADD25C,4.168400*%
%ADD26C,4.597400*%


D10*
X254400Y165100D03*
X279400Y165100D03*
X304400Y165100D03*
D11*
X229400Y235100D03*
X329400Y235100D03*
D12*
X646700Y164700D03*
X646700Y114700D03*
X521700Y114700D03*
X521700Y164700D03*
D13*
X1089100Y687400D03*
D14*
X1064100Y687400D03*
X1044100Y687400D03*
X1019100Y687400D03*
D15*
X1119800Y660300D03*
X988400Y660300D03*
D16*
X723020Y223520D03*
X740020Y223520D03*
D17*
X538600Y292100D03*
X553600Y292100D03*
D10*
X991000Y152400D03*
X1016000Y152400D03*
X1041000Y152400D03*
D11*
X966000Y222400D03*
X1066000Y222400D03*
D17*
X680600Y330200D03*
X665600Y330200D03*
X792600Y292100D03*
X807600Y292100D03*
D12*
X811800Y164700D03*
X811800Y114700D03*
X686800Y114700D03*
X686800Y164700D03*
D16*
X578240Y223520D03*
X595240Y223520D03*
D18*
X43180Y901700D02*
X43182Y901887D01*
X43189Y902074D01*
X43201Y902261D01*
X43217Y902447D01*
X43237Y902633D01*
X43262Y902818D01*
X43292Y903003D01*
X43326Y903187D01*
X43365Y903370D01*
X43408Y903552D01*
X43456Y903732D01*
X43508Y903912D01*
X43565Y904090D01*
X43625Y904267D01*
X43691Y904442D01*
X43760Y904616D01*
X43834Y904788D01*
X43912Y904958D01*
X43994Y905126D01*
X44080Y905292D01*
X44170Y905456D01*
X44264Y905617D01*
X44362Y905777D01*
X44464Y905933D01*
X44570Y906088D01*
X44680Y906239D01*
X44793Y906388D01*
X44910Y906534D01*
X45030Y906677D01*
X45154Y906817D01*
X45281Y906954D01*
X45412Y907088D01*
X45546Y907219D01*
X45683Y907346D01*
X45823Y907470D01*
X45966Y907590D01*
X46112Y907707D01*
X46261Y907820D01*
X46412Y907930D01*
X46567Y908036D01*
X46723Y908138D01*
X46883Y908236D01*
X47044Y908330D01*
X47208Y908420D01*
X47374Y908506D01*
X47542Y908588D01*
X47712Y908666D01*
X47884Y908740D01*
X48058Y908809D01*
X48233Y908875D01*
X48410Y908935D01*
X48588Y908992D01*
X48768Y909044D01*
X48948Y909092D01*
X49130Y909135D01*
X49313Y909174D01*
X49497Y909208D01*
X49682Y909238D01*
X49867Y909263D01*
X50053Y909283D01*
X50239Y909299D01*
X50426Y909311D01*
X50613Y909318D01*
X50800Y909320D01*
X50987Y909318D01*
X51174Y909311D01*
X51361Y909299D01*
X51547Y909283D01*
X51733Y909263D01*
X51918Y909238D01*
X52103Y909208D01*
X52287Y909174D01*
X52470Y909135D01*
X52652Y909092D01*
X52832Y909044D01*
X53012Y908992D01*
X53190Y908935D01*
X53367Y908875D01*
X53542Y908809D01*
X53716Y908740D01*
X53888Y908666D01*
X54058Y908588D01*
X54226Y908506D01*
X54392Y908420D01*
X54556Y908330D01*
X54717Y908236D01*
X54877Y908138D01*
X55033Y908036D01*
X55188Y907930D01*
X55339Y907820D01*
X55488Y907707D01*
X55634Y907590D01*
X55777Y907470D01*
X55917Y907346D01*
X56054Y907219D01*
X56188Y907088D01*
X56319Y906954D01*
X56446Y906817D01*
X56570Y906677D01*
X56690Y906534D01*
X56807Y906388D01*
X56920Y906239D01*
X57030Y906088D01*
X57136Y905933D01*
X57238Y905777D01*
X57336Y905617D01*
X57430Y905456D01*
X57520Y905292D01*
X57606Y905126D01*
X57688Y904958D01*
X57766Y904788D01*
X57840Y904616D01*
X57909Y904442D01*
X57975Y904267D01*
X58035Y904090D01*
X58092Y903912D01*
X58144Y903732D01*
X58192Y903552D01*
X58235Y903370D01*
X58274Y903187D01*
X58308Y903003D01*
X58338Y902818D01*
X58363Y902633D01*
X58383Y902447D01*
X58399Y902261D01*
X58411Y902074D01*
X58418Y901887D01*
X58420Y901700D01*
X58418Y901513D01*
X58411Y901326D01*
X58399Y901139D01*
X58383Y900953D01*
X58363Y900767D01*
X58338Y900582D01*
X58308Y900397D01*
X58274Y900213D01*
X58235Y900030D01*
X58192Y899848D01*
X58144Y899668D01*
X58092Y899488D01*
X58035Y899310D01*
X57975Y899133D01*
X57909Y898958D01*
X57840Y898784D01*
X57766Y898612D01*
X57688Y898442D01*
X57606Y898274D01*
X57520Y898108D01*
X57430Y897944D01*
X57336Y897783D01*
X57238Y897623D01*
X57136Y897467D01*
X57030Y897312D01*
X56920Y897161D01*
X56807Y897012D01*
X56690Y896866D01*
X56570Y896723D01*
X56446Y896583D01*
X56319Y896446D01*
X56188Y896312D01*
X56054Y896181D01*
X55917Y896054D01*
X55777Y895930D01*
X55634Y895810D01*
X55488Y895693D01*
X55339Y895580D01*
X55188Y895470D01*
X55033Y895364D01*
X54877Y895262D01*
X54717Y895164D01*
X54556Y895070D01*
X54392Y894980D01*
X54226Y894894D01*
X54058Y894812D01*
X53888Y894734D01*
X53716Y894660D01*
X53542Y894591D01*
X53367Y894525D01*
X53190Y894465D01*
X53012Y894408D01*
X52832Y894356D01*
X52652Y894308D01*
X52470Y894265D01*
X52287Y894226D01*
X52103Y894192D01*
X51918Y894162D01*
X51733Y894137D01*
X51547Y894117D01*
X51361Y894101D01*
X51174Y894089D01*
X50987Y894082D01*
X50800Y894080D01*
X50613Y894082D01*
X50426Y894089D01*
X50239Y894101D01*
X50053Y894117D01*
X49867Y894137D01*
X49682Y894162D01*
X49497Y894192D01*
X49313Y894226D01*
X49130Y894265D01*
X48948Y894308D01*
X48768Y894356D01*
X48588Y894408D01*
X48410Y894465D01*
X48233Y894525D01*
X48058Y894591D01*
X47884Y894660D01*
X47712Y894734D01*
X47542Y894812D01*
X47374Y894894D01*
X47208Y894980D01*
X47044Y895070D01*
X46883Y895164D01*
X46723Y895262D01*
X46567Y895364D01*
X46412Y895470D01*
X46261Y895580D01*
X46112Y895693D01*
X45966Y895810D01*
X45823Y895930D01*
X45683Y896054D01*
X45546Y896181D01*
X45412Y896312D01*
X45281Y896446D01*
X45154Y896583D01*
X45030Y896723D01*
X44910Y896866D01*
X44793Y897012D01*
X44680Y897161D01*
X44570Y897312D01*
X44464Y897467D01*
X44362Y897623D01*
X44264Y897783D01*
X44170Y897944D01*
X44080Y898108D01*
X43994Y898274D01*
X43912Y898442D01*
X43834Y898612D01*
X43760Y898784D01*
X43691Y898958D01*
X43625Y899133D01*
X43565Y899310D01*
X43508Y899488D01*
X43456Y899668D01*
X43408Y899848D01*
X43365Y900030D01*
X43326Y900213D01*
X43292Y900397D01*
X43262Y900582D01*
X43237Y900767D01*
X43217Y900953D01*
X43201Y901139D01*
X43189Y901326D01*
X43182Y901513D01*
X43180Y901700D01*
D19*
X50800Y901700D03*
D18*
X43180Y139700D02*
X43182Y139887D01*
X43189Y140074D01*
X43201Y140261D01*
X43217Y140447D01*
X43237Y140633D01*
X43262Y140818D01*
X43292Y141003D01*
X43326Y141187D01*
X43365Y141370D01*
X43408Y141552D01*
X43456Y141732D01*
X43508Y141912D01*
X43565Y142090D01*
X43625Y142267D01*
X43691Y142442D01*
X43760Y142616D01*
X43834Y142788D01*
X43912Y142958D01*
X43994Y143126D01*
X44080Y143292D01*
X44170Y143456D01*
X44264Y143617D01*
X44362Y143777D01*
X44464Y143933D01*
X44570Y144088D01*
X44680Y144239D01*
X44793Y144388D01*
X44910Y144534D01*
X45030Y144677D01*
X45154Y144817D01*
X45281Y144954D01*
X45412Y145088D01*
X45546Y145219D01*
X45683Y145346D01*
X45823Y145470D01*
X45966Y145590D01*
X46112Y145707D01*
X46261Y145820D01*
X46412Y145930D01*
X46567Y146036D01*
X46723Y146138D01*
X46883Y146236D01*
X47044Y146330D01*
X47208Y146420D01*
X47374Y146506D01*
X47542Y146588D01*
X47712Y146666D01*
X47884Y146740D01*
X48058Y146809D01*
X48233Y146875D01*
X48410Y146935D01*
X48588Y146992D01*
X48768Y147044D01*
X48948Y147092D01*
X49130Y147135D01*
X49313Y147174D01*
X49497Y147208D01*
X49682Y147238D01*
X49867Y147263D01*
X50053Y147283D01*
X50239Y147299D01*
X50426Y147311D01*
X50613Y147318D01*
X50800Y147320D01*
X50987Y147318D01*
X51174Y147311D01*
X51361Y147299D01*
X51547Y147283D01*
X51733Y147263D01*
X51918Y147238D01*
X52103Y147208D01*
X52287Y147174D01*
X52470Y147135D01*
X52652Y147092D01*
X52832Y147044D01*
X53012Y146992D01*
X53190Y146935D01*
X53367Y146875D01*
X53542Y146809D01*
X53716Y146740D01*
X53888Y146666D01*
X54058Y146588D01*
X54226Y146506D01*
X54392Y146420D01*
X54556Y146330D01*
X54717Y146236D01*
X54877Y146138D01*
X55033Y146036D01*
X55188Y145930D01*
X55339Y145820D01*
X55488Y145707D01*
X55634Y145590D01*
X55777Y145470D01*
X55917Y145346D01*
X56054Y145219D01*
X56188Y145088D01*
X56319Y144954D01*
X56446Y144817D01*
X56570Y144677D01*
X56690Y144534D01*
X56807Y144388D01*
X56920Y144239D01*
X57030Y144088D01*
X57136Y143933D01*
X57238Y143777D01*
X57336Y143617D01*
X57430Y143456D01*
X57520Y143292D01*
X57606Y143126D01*
X57688Y142958D01*
X57766Y142788D01*
X57840Y142616D01*
X57909Y142442D01*
X57975Y142267D01*
X58035Y142090D01*
X58092Y141912D01*
X58144Y141732D01*
X58192Y141552D01*
X58235Y141370D01*
X58274Y141187D01*
X58308Y141003D01*
X58338Y140818D01*
X58363Y140633D01*
X58383Y140447D01*
X58399Y140261D01*
X58411Y140074D01*
X58418Y139887D01*
X58420Y139700D01*
X58418Y139513D01*
X58411Y139326D01*
X58399Y139139D01*
X58383Y138953D01*
X58363Y138767D01*
X58338Y138582D01*
X58308Y138397D01*
X58274Y138213D01*
X58235Y138030D01*
X58192Y137848D01*
X58144Y137668D01*
X58092Y137488D01*
X58035Y137310D01*
X57975Y137133D01*
X57909Y136958D01*
X57840Y136784D01*
X57766Y136612D01*
X57688Y136442D01*
X57606Y136274D01*
X57520Y136108D01*
X57430Y135944D01*
X57336Y135783D01*
X57238Y135623D01*
X57136Y135467D01*
X57030Y135312D01*
X56920Y135161D01*
X56807Y135012D01*
X56690Y134866D01*
X56570Y134723D01*
X56446Y134583D01*
X56319Y134446D01*
X56188Y134312D01*
X56054Y134181D01*
X55917Y134054D01*
X55777Y133930D01*
X55634Y133810D01*
X55488Y133693D01*
X55339Y133580D01*
X55188Y133470D01*
X55033Y133364D01*
X54877Y133262D01*
X54717Y133164D01*
X54556Y133070D01*
X54392Y132980D01*
X54226Y132894D01*
X54058Y132812D01*
X53888Y132734D01*
X53716Y132660D01*
X53542Y132591D01*
X53367Y132525D01*
X53190Y132465D01*
X53012Y132408D01*
X52832Y132356D01*
X52652Y132308D01*
X52470Y132265D01*
X52287Y132226D01*
X52103Y132192D01*
X51918Y132162D01*
X51733Y132137D01*
X51547Y132117D01*
X51361Y132101D01*
X51174Y132089D01*
X50987Y132082D01*
X50800Y132080D01*
X50613Y132082D01*
X50426Y132089D01*
X50239Y132101D01*
X50053Y132117D01*
X49867Y132137D01*
X49682Y132162D01*
X49497Y132192D01*
X49313Y132226D01*
X49130Y132265D01*
X48948Y132308D01*
X48768Y132356D01*
X48588Y132408D01*
X48410Y132465D01*
X48233Y132525D01*
X48058Y132591D01*
X47884Y132660D01*
X47712Y132734D01*
X47542Y132812D01*
X47374Y132894D01*
X47208Y132980D01*
X47044Y133070D01*
X46883Y133164D01*
X46723Y133262D01*
X46567Y133364D01*
X46412Y133470D01*
X46261Y133580D01*
X46112Y133693D01*
X45966Y133810D01*
X45823Y133930D01*
X45683Y134054D01*
X45546Y134181D01*
X45412Y134312D01*
X45281Y134446D01*
X45154Y134583D01*
X45030Y134723D01*
X44910Y134866D01*
X44793Y135012D01*
X44680Y135161D01*
X44570Y135312D01*
X44464Y135467D01*
X44362Y135623D01*
X44264Y135783D01*
X44170Y135944D01*
X44080Y136108D01*
X43994Y136274D01*
X43912Y136442D01*
X43834Y136612D01*
X43760Y136784D01*
X43691Y136958D01*
X43625Y137133D01*
X43565Y137310D01*
X43508Y137488D01*
X43456Y137668D01*
X43408Y137848D01*
X43365Y138030D01*
X43326Y138213D01*
X43292Y138397D01*
X43262Y138582D01*
X43237Y138767D01*
X43217Y138953D01*
X43201Y139139D01*
X43189Y139326D01*
X43182Y139513D01*
X43180Y139700D01*
D19*
X50800Y139700D03*
D18*
X1211580Y139700D02*
X1211582Y139887D01*
X1211589Y140074D01*
X1211601Y140261D01*
X1211617Y140447D01*
X1211637Y140633D01*
X1211662Y140818D01*
X1211692Y141003D01*
X1211726Y141187D01*
X1211765Y141370D01*
X1211808Y141552D01*
X1211856Y141732D01*
X1211908Y141912D01*
X1211965Y142090D01*
X1212025Y142267D01*
X1212091Y142442D01*
X1212160Y142616D01*
X1212234Y142788D01*
X1212312Y142958D01*
X1212394Y143126D01*
X1212480Y143292D01*
X1212570Y143456D01*
X1212664Y143617D01*
X1212762Y143777D01*
X1212864Y143933D01*
X1212970Y144088D01*
X1213080Y144239D01*
X1213193Y144388D01*
X1213310Y144534D01*
X1213430Y144677D01*
X1213554Y144817D01*
X1213681Y144954D01*
X1213812Y145088D01*
X1213946Y145219D01*
X1214083Y145346D01*
X1214223Y145470D01*
X1214366Y145590D01*
X1214512Y145707D01*
X1214661Y145820D01*
X1214812Y145930D01*
X1214967Y146036D01*
X1215123Y146138D01*
X1215283Y146236D01*
X1215444Y146330D01*
X1215608Y146420D01*
X1215774Y146506D01*
X1215942Y146588D01*
X1216112Y146666D01*
X1216284Y146740D01*
X1216458Y146809D01*
X1216633Y146875D01*
X1216810Y146935D01*
X1216988Y146992D01*
X1217168Y147044D01*
X1217348Y147092D01*
X1217530Y147135D01*
X1217713Y147174D01*
X1217897Y147208D01*
X1218082Y147238D01*
X1218267Y147263D01*
X1218453Y147283D01*
X1218639Y147299D01*
X1218826Y147311D01*
X1219013Y147318D01*
X1219200Y147320D01*
X1219387Y147318D01*
X1219574Y147311D01*
X1219761Y147299D01*
X1219947Y147283D01*
X1220133Y147263D01*
X1220318Y147238D01*
X1220503Y147208D01*
X1220687Y147174D01*
X1220870Y147135D01*
X1221052Y147092D01*
X1221232Y147044D01*
X1221412Y146992D01*
X1221590Y146935D01*
X1221767Y146875D01*
X1221942Y146809D01*
X1222116Y146740D01*
X1222288Y146666D01*
X1222458Y146588D01*
X1222626Y146506D01*
X1222792Y146420D01*
X1222956Y146330D01*
X1223117Y146236D01*
X1223277Y146138D01*
X1223433Y146036D01*
X1223588Y145930D01*
X1223739Y145820D01*
X1223888Y145707D01*
X1224034Y145590D01*
X1224177Y145470D01*
X1224317Y145346D01*
X1224454Y145219D01*
X1224588Y145088D01*
X1224719Y144954D01*
X1224846Y144817D01*
X1224970Y144677D01*
X1225090Y144534D01*
X1225207Y144388D01*
X1225320Y144239D01*
X1225430Y144088D01*
X1225536Y143933D01*
X1225638Y143777D01*
X1225736Y143617D01*
X1225830Y143456D01*
X1225920Y143292D01*
X1226006Y143126D01*
X1226088Y142958D01*
X1226166Y142788D01*
X1226240Y142616D01*
X1226309Y142442D01*
X1226375Y142267D01*
X1226435Y142090D01*
X1226492Y141912D01*
X1226544Y141732D01*
X1226592Y141552D01*
X1226635Y141370D01*
X1226674Y141187D01*
X1226708Y141003D01*
X1226738Y140818D01*
X1226763Y140633D01*
X1226783Y140447D01*
X1226799Y140261D01*
X1226811Y140074D01*
X1226818Y139887D01*
X1226820Y139700D01*
X1226818Y139513D01*
X1226811Y139326D01*
X1226799Y139139D01*
X1226783Y138953D01*
X1226763Y138767D01*
X1226738Y138582D01*
X1226708Y138397D01*
X1226674Y138213D01*
X1226635Y138030D01*
X1226592Y137848D01*
X1226544Y137668D01*
X1226492Y137488D01*
X1226435Y137310D01*
X1226375Y137133D01*
X1226309Y136958D01*
X1226240Y136784D01*
X1226166Y136612D01*
X1226088Y136442D01*
X1226006Y136274D01*
X1225920Y136108D01*
X1225830Y135944D01*
X1225736Y135783D01*
X1225638Y135623D01*
X1225536Y135467D01*
X1225430Y135312D01*
X1225320Y135161D01*
X1225207Y135012D01*
X1225090Y134866D01*
X1224970Y134723D01*
X1224846Y134583D01*
X1224719Y134446D01*
X1224588Y134312D01*
X1224454Y134181D01*
X1224317Y134054D01*
X1224177Y133930D01*
X1224034Y133810D01*
X1223888Y133693D01*
X1223739Y133580D01*
X1223588Y133470D01*
X1223433Y133364D01*
X1223277Y133262D01*
X1223117Y133164D01*
X1222956Y133070D01*
X1222792Y132980D01*
X1222626Y132894D01*
X1222458Y132812D01*
X1222288Y132734D01*
X1222116Y132660D01*
X1221942Y132591D01*
X1221767Y132525D01*
X1221590Y132465D01*
X1221412Y132408D01*
X1221232Y132356D01*
X1221052Y132308D01*
X1220870Y132265D01*
X1220687Y132226D01*
X1220503Y132192D01*
X1220318Y132162D01*
X1220133Y132137D01*
X1219947Y132117D01*
X1219761Y132101D01*
X1219574Y132089D01*
X1219387Y132082D01*
X1219200Y132080D01*
X1219013Y132082D01*
X1218826Y132089D01*
X1218639Y132101D01*
X1218453Y132117D01*
X1218267Y132137D01*
X1218082Y132162D01*
X1217897Y132192D01*
X1217713Y132226D01*
X1217530Y132265D01*
X1217348Y132308D01*
X1217168Y132356D01*
X1216988Y132408D01*
X1216810Y132465D01*
X1216633Y132525D01*
X1216458Y132591D01*
X1216284Y132660D01*
X1216112Y132734D01*
X1215942Y132812D01*
X1215774Y132894D01*
X1215608Y132980D01*
X1215444Y133070D01*
X1215283Y133164D01*
X1215123Y133262D01*
X1214967Y133364D01*
X1214812Y133470D01*
X1214661Y133580D01*
X1214512Y133693D01*
X1214366Y133810D01*
X1214223Y133930D01*
X1214083Y134054D01*
X1213946Y134181D01*
X1213812Y134312D01*
X1213681Y134446D01*
X1213554Y134583D01*
X1213430Y134723D01*
X1213310Y134866D01*
X1213193Y135012D01*
X1213080Y135161D01*
X1212970Y135312D01*
X1212864Y135467D01*
X1212762Y135623D01*
X1212664Y135783D01*
X1212570Y135944D01*
X1212480Y136108D01*
X1212394Y136274D01*
X1212312Y136442D01*
X1212234Y136612D01*
X1212160Y136784D01*
X1212091Y136958D01*
X1212025Y137133D01*
X1211965Y137310D01*
X1211908Y137488D01*
X1211856Y137668D01*
X1211808Y137848D01*
X1211765Y138030D01*
X1211726Y138213D01*
X1211692Y138397D01*
X1211662Y138582D01*
X1211637Y138767D01*
X1211617Y138953D01*
X1211601Y139139D01*
X1211589Y139326D01*
X1211582Y139513D01*
X1211580Y139700D01*
D19*
X1219200Y139700D03*
D20*
X638200Y901700D03*
X657200Y901700D03*
D21*
X409200Y842600D03*
D22*
X383800Y842600D03*
X409200Y817200D03*
X383800Y817200D03*
X409200Y791800D03*
X383800Y791800D03*
X409200Y766400D03*
X383800Y766400D03*
X409200Y741000D03*
X383800Y741000D03*
X409200Y715600D03*
X383800Y715600D03*
X409200Y690200D03*
X383800Y690200D03*
X409200Y664800D03*
X383800Y664800D03*
X409200Y639400D03*
X383800Y639400D03*
X409200Y614000D03*
X383800Y614000D03*
X409200Y588600D03*
X383800Y588600D03*
X409200Y563200D03*
X383800Y563200D03*
X409200Y537800D03*
X383800Y537800D03*
X409200Y512400D03*
X383800Y512400D03*
X409200Y487000D03*
X383800Y487000D03*
X409200Y461600D03*
X383800Y461600D03*
X409200Y436200D03*
X383800Y436200D03*
X409200Y410800D03*
X383800Y410800D03*
D21*
X155200Y842600D03*
D22*
X129800Y842600D03*
X155200Y817200D03*
X129800Y817200D03*
X155200Y791800D03*
X129800Y791800D03*
X155200Y766400D03*
X129800Y766400D03*
X155200Y741000D03*
X129800Y741000D03*
X155200Y715600D03*
X129800Y715600D03*
X155200Y690200D03*
X129800Y690200D03*
X155200Y664800D03*
X129800Y664800D03*
X155200Y639400D03*
X129800Y639400D03*
X155200Y614000D03*
X129800Y614000D03*
X155200Y588600D03*
X129800Y588600D03*
X155200Y563200D03*
X129800Y563200D03*
X155200Y537800D03*
X129800Y537800D03*
X155200Y512400D03*
X129800Y512400D03*
X155200Y487000D03*
X129800Y487000D03*
X155200Y461600D03*
X129800Y461600D03*
X155200Y436200D03*
X129800Y436200D03*
X155200Y410800D03*
X129800Y410800D03*
D23*
X304800Y368300D03*
D24*
X304800Y393700D03*
X304800Y419100D03*
X304800Y444500D03*
X304800Y469900D03*
X304800Y495300D03*
X304800Y520700D03*
X304800Y546100D03*
X304800Y571500D03*
X304800Y596900D03*
X304800Y622300D03*
X304800Y647700D03*
X304800Y673100D03*
X304800Y698500D03*
X304800Y723900D03*
X304800Y749300D03*
X304800Y774700D03*
X304800Y800100D03*
X304800Y825500D03*
X304800Y850900D03*
D25*
X304800Y323850D03*
X304800Y895350D03*
X1066800Y323850D03*
X1066800Y895350D03*
D26*
X1219200Y965200D03*
X50800Y965200D03*
X50800Y50800D03*
X1219200Y50800D03*
M02*
